<svg width="40" height="38" viewBox="0 0 40 38" fill="none" xmlns="http://www.w3.org/2000/svg">
<path fill-rule="evenodd" clip-rule="evenodd" d="M2.52595 0.050946C2.52595 0.108858 2.37882 0.148207 2.16235 0.148207C2.04408 0.148207 2.01142 0.162842 1.99689 0.22231C1.98318 0.27848 1.94969 0.296413 1.85848 0.296413C1.76727 0.296413 1.73381 0.314346 1.72007 0.370516C1.70623 0.427279 1.67287 0.44462 1.57765 0.44462C1.49484 0.44462 1.45329 0.461737 1.45329 0.495862C1.45329 0.524058 1.42215 0.555848 1.38408 0.566519C1.34602 0.577153 1.31488 0.612464 1.31488 0.644921C1.31488 0.679268 1.28592 0.703981 1.24567 0.703981C1.19955 0.703981 1.17647 0.728694 1.17647 0.778084C1.17647 0.827474 1.15339 0.852187 1.10727 0.852187C1.06114 0.852187 1.03806 0.876901 1.03806 0.926291C1.03806 0.975681 1.01498 1.00039 0.968858 1.00039C0.930415 1.00039 0.899654 1.02511 0.899654 1.05597C0.899654 1.08654 0.876298 1.11155 0.847751 1.11155C0.818132 1.11155 0.795848 1.14486 0.795848 1.18913C0.795848 1.23426 0.76827 1.27443 0.729827 1.28517C0.69353 1.29533 0.656056 1.33545 0.646575 1.37432C0.637094 1.41322 0.604498 1.44501 0.574187 1.44501C0.534221 1.44501 0.519031 1.48073 0.519031 1.57469C0.519031 1.67966 0.505848 1.70437 0.449827 1.70437C0.403702 1.70437 0.380623 1.72909 0.380623 1.77848C0.380623 1.81923 0.359204 1.85258 0.333045 1.85258C0.285606 1.85258 0.242215 2.00523 0.242215 2.17215C0.242215 2.22432 0.221799 2.26015 0.192041 2.26015C0.156366 2.26015 0.135052 2.32451 0.11834 2.48246C0.102353 2.63382 0.0797233 2.70477 0.0474395 2.70477C0.00737032 2.70477 0 4.413 0 13.7091C0 23.0052 0.00737032 24.7134 0.0474395 24.7134C0.0797233 24.7134 0.102353 24.7844 0.11834 24.9357C0.135052 25.0937 0.156366 25.1581 0.192041 25.1581C0.226574 25.1581 0.242215 25.1996 0.242215 25.2912C0.242215 25.3932 0.258408 25.4289 0.311419 25.4437C0.363426 25.4583 0.380623 25.4943 0.380623 25.5885C0.380623 25.6891 0.394256 25.7138 0.449827 25.7138C0.507509 25.7138 0.519031 25.7385 0.519031 25.862C0.519031 25.9855 0.530554 26.0102 0.588235 26.0102C0.63436 26.0102 0.657439 26.035 0.657439 26.0843C0.657439 26.1337 0.680519 26.1585 0.726644 26.1585C0.772768 26.1585 0.795848 26.1832 0.795848 26.2326C0.795848 26.2737 0.818927 26.3067 0.847751 26.3067C0.876298 26.3067 0.899654 26.3332 0.899654 26.3657C0.899654 26.3982 0.930796 26.4335 0.968858 26.4441C1.00692 26.4548 1.03806 26.4866 1.03806 26.5148C1.03806 26.5429 1.0692 26.566 1.10727 26.566C1.15339 26.566 1.17647 26.5907 1.17647 26.6401C1.17647 26.6895 1.19955 26.7142 1.24567 26.7142C1.2918 26.7142 1.31488 26.7389 1.31488 26.7883C1.31488 26.8501 1.33796 26.8624 1.45329 26.8624C1.56862 26.8624 1.5917 26.8748 1.5917 26.9365C1.5917 26.996 1.61477 27.0106 1.70875 27.0106C1.79675 27.0106 1.83035 27.0291 1.84394 27.0847C1.85779 27.1415 1.89114 27.1588 1.98637 27.1588C2.07194 27.1588 2.11073 27.1756 2.11073 27.2126C2.11073 27.2508 2.17083 27.2736 2.31834 27.2915C2.45969 27.3086 2.52595 27.3328 2.52595 27.3674C2.52595 27.4102 3.37419 27.4182 7.91955 27.4182H13.3131L13.3348 27.534C13.3467 27.5977 13.3564 27.8561 13.3564 28.1083C13.3564 28.4911 13.3649 28.5668 13.4083 28.5668C13.4487 28.5668 13.4602 28.6162 13.4602 28.7891C13.4602 28.9867 13.4679 29.0114 13.5294 29.0114C13.5854 29.0114 13.5986 29.0361 13.5986 29.1411C13.5986 29.2461 13.6118 29.2708 13.6678 29.2708C13.7139 29.2708 13.737 29.2955 13.737 29.3449C13.737 29.3943 13.7601 29.419 13.8062 29.419C13.8524 29.419 13.8754 29.4437 13.8754 29.4931C13.8754 29.5531 13.8985 29.5672 13.9965 29.5672C14.0946 29.5672 14.1176 29.5813 14.1176 29.6413C14.1176 29.7031 14.1407 29.7154 14.2561 29.7154C14.3714 29.7154 14.3945 29.7277 14.3945 29.7895C14.3945 29.8633 14.4174 29.8636 19.9221 29.8631C22.9624 29.8628 25.4849 29.8525 25.5277 29.8403C25.5705 29.828 25.6055 29.7948 25.6055 29.7666C25.6055 29.7316 25.6492 29.7154 25.7439 29.7154C25.8593 29.7154 25.8824 29.7031 25.8824 29.6413C25.8824 29.5813 25.9054 29.5672 26.0035 29.5672C26.1015 29.5672 26.1246 29.5531 26.1246 29.4931C26.1246 29.4437 26.1476 29.419 26.1938 29.419C26.2399 29.419 26.263 29.3943 26.263 29.3449C26.263 29.2955 26.2861 29.2708 26.3322 29.2708C26.3878 29.2708 26.4014 29.2461 26.4014 29.1454C26.4014 29.0512 26.4186 29.0152 26.4706 29.0007C26.5294 28.9842 26.5398 28.9501 26.5398 28.7741C26.5398 28.6162 26.5519 28.5668 26.5908 28.5668C26.6331 28.5668 26.6434 28.4702 26.6514 28.0018L26.6609 27.4367L32.0675 27.4274C36.6136 27.4195 37.474 27.4099 37.474 27.3673C37.474 27.3328 37.5406 27.3086 37.6817 27.2915C37.8292 27.2736 37.8893 27.2508 37.8893 27.2126C37.8893 27.1756 37.9281 27.1588 38.0136 27.1588C38.1089 27.1588 38.1422 27.1415 38.1561 27.0847C38.1697 27.0291 38.2033 27.0106 38.2912 27.0106C38.3852 27.0106 38.4083 26.996 38.4083 26.9365C38.4083 26.8748 38.4314 26.8624 38.5467 26.8624C38.662 26.8624 38.6851 26.8501 38.6851 26.7883C38.6851 26.7389 38.7082 26.7142 38.7543 26.7142C38.8004 26.7142 38.8235 26.6895 38.8235 26.6401C38.8235 26.5907 38.8466 26.566 38.8927 26.566C38.9308 26.566 38.9619 26.5429 38.9619 26.5148C38.9619 26.4866 38.9931 26.4548 39.0311 26.4441C39.0692 26.4335 39.1003 26.3982 39.1003 26.3657C39.1003 26.3332 39.1237 26.3067 39.1522 26.3067C39.1811 26.3067 39.2042 26.2737 39.2042 26.2326C39.2042 26.1832 39.2272 26.1585 39.2734 26.1585C39.3195 26.1585 39.3426 26.1337 39.3426 26.0843C39.3426 26.035 39.3656 26.0102 39.4118 26.0102C39.4694 26.0102 39.481 25.9855 39.481 25.862C39.481 25.7385 39.4925 25.7138 39.5502 25.7138C39.6057 25.7138 39.6194 25.6891 39.6194 25.5885C39.6194 25.4943 39.6366 25.4583 39.6886 25.4437C39.7416 25.4289 39.7578 25.3932 39.7578 25.2912C39.7578 25.1996 39.7734 25.1581 39.808 25.1581C39.8436 25.1581 39.8649 25.0937 39.8817 24.9357C39.8976 24.7844 39.9203 24.7134 39.9526 24.7134C39.9926 24.7134 40 23.0052 40 13.7091C40 4.413 39.9926 2.70477 39.9526 2.70477C39.9203 2.70477 39.8976 2.63382 39.8817 2.48246C39.8649 2.32451 39.8436 2.26015 39.808 2.26015C39.7782 2.26015 39.7578 2.22432 39.7578 2.17215C39.7578 2.00523 39.7144 1.85258 39.667 1.85258C39.6408 1.85258 39.6194 1.81923 39.6194 1.77848C39.6194 1.72909 39.5963 1.70437 39.5502 1.70437C39.4946 1.70437 39.481 1.67966 39.481 1.57903C39.481 1.48481 39.4638 1.44883 39.4118 1.43427C39.3737 1.42364 39.3426 1.39029 39.3426 1.36017C39.3426 1.33008 39.3114 1.29673 39.2734 1.28606C39.2353 1.27543 39.2042 1.24012 39.2042 1.20766C39.2042 1.17517 39.1808 1.1486 39.1522 1.1486C39.1234 1.1486 39.1003 1.11566 39.1003 1.0745C39.1003 1.02511 39.0773 1.00039 39.0311 1.00039C38.985 1.00039 38.9619 0.975681 38.9619 0.926291C38.9619 0.876901 38.9389 0.852187 38.8927 0.852187C38.8466 0.852187 38.8235 0.827474 38.8235 0.778084C38.8235 0.728694 38.8004 0.703981 38.7543 0.703981C38.7141 0.703981 38.6851 0.679268 38.6851 0.644921C38.6851 0.612464 38.654 0.577153 38.6159 0.566519C38.5779 0.555848 38.5467 0.524058 38.5467 0.495862C38.5467 0.461737 38.5052 0.44462 38.4224 0.44462C38.3271 0.44462 38.2938 0.427279 38.2799 0.370516C38.2657 0.312456 38.2327 0.296413 38.1274 0.296413C38.0162 0.296413 37.9931 0.283704 37.9931 0.22231C37.9931 0.159507 37.97 0.148207 37.8417 0.148207C37.6214 0.148207 37.474 0.109228 37.474 0.050946C37.474 0.00778084 34.8034 0 20 0C5.19661 0 2.52595 0.00778084 2.52595 0.050946ZM36.5398 13.7091V23.713H20H3.46021V13.7091V3.70516H20H36.5398V13.7091ZM4.99135 31.4459C4.94855 31.4548 4.91349 31.4858 4.91349 31.515C4.91349 31.5509 4.87436 31.568 4.79239 31.568C4.69436 31.568 4.67128 31.5821 4.67128 31.6421C4.67128 31.6915 4.6482 31.7162 4.60208 31.7162C4.55595 31.7162 4.53287 31.7409 4.53287 31.7903C4.53287 31.8397 4.50979 31.8644 4.46367 31.8644C4.42522 31.8644 4.39446 31.8891 4.39446 31.92C4.39446 31.9508 4.3637 31.9756 4.32526 31.9756C4.27913 31.9756 4.25606 32.0003 4.25606 32.0497C4.25606 32.099 4.23298 32.1238 4.18685 32.1238C4.14073 32.1238 4.11765 32.1485 4.11765 32.1979C4.11765 32.2473 4.09457 32.272 4.04844 32.272C4.00232 32.272 3.97924 32.2967 3.97924 32.3461C3.97924 32.3955 3.95616 32.4202 3.91003 32.4202C3.86391 32.4202 3.84083 32.4449 3.84083 32.4943C3.84083 32.5437 3.81775 32.5684 3.77163 32.5684C3.7255 32.5684 3.70242 32.5931 3.70242 32.6425C3.70242 32.6919 3.67934 32.7166 3.63322 32.7166C3.59477 32.7166 3.56401 32.7413 3.56401 32.7722C3.56401 32.8027 3.54066 32.8277 3.51211 32.8277C3.48329 32.8277 3.46021 32.8607 3.46021 32.9018C3.46021 32.9512 3.43713 32.9759 3.391 32.9759C3.34488 32.9759 3.3218 33.0007 3.3218 33.0501C3.3218 33.0994 3.29872 33.1242 3.2526 33.1242C3.20789 33.1242 3.18339 33.1489 3.18339 33.1939C3.18339 33.2326 3.15249 33.2724 3.11419 33.2831C3.07612 33.2937 3.04498 33.3271 3.04498 33.3572C3.04498 33.3873 3.01384 33.4206 2.97578 33.4313C2.93772 33.4419 2.90657 33.4773 2.90657 33.5097C2.90657 33.5422 2.88322 33.5688 2.85467 33.5688C2.82585 33.5688 2.80277 33.6017 2.80277 33.6429C2.80277 33.6923 2.77969 33.717 2.73356 33.717C2.68744 33.717 2.66436 33.7417 2.66436 33.7911C2.66436 33.8405 2.64128 33.8652 2.59516 33.8652C2.54903 33.8652 2.52595 33.8899 2.52595 33.9393C2.52595 33.9887 2.50287 34.0134 2.45675 34.0134C2.40073 34.0134 2.38754 34.0381 2.38754 34.1431C2.38754 34.248 2.37436 34.2728 2.31834 34.2728C2.27221 34.2728 2.24914 34.2975 2.24914 34.3469C2.24914 34.3963 2.22606 34.421 2.17993 34.421C2.13381 34.421 2.11073 34.4457 2.11073 34.4951C2.11073 34.5445 2.08765 34.5692 2.04152 34.5692C1.9954 34.5692 1.97232 34.5939 1.97232 34.6433C1.97232 34.6844 1.94924 34.7174 1.92042 34.7174C1.89159 34.7174 1.86851 34.7503 1.86851 34.7915C1.86851 34.8394 1.84543 34.8656 1.80315 34.8656C1.75588 34.8656 1.73152 34.9014 1.71509 34.9953C1.70149 35.0729 1.67214 35.1249 1.64204 35.1249C1.61436 35.1249 1.5917 35.1583 1.5917 35.199C1.5917 35.2484 1.56862 35.2732 1.52249 35.2732C1.47637 35.2732 1.45329 35.2979 1.45329 35.3473C1.45329 35.3966 1.43021 35.4214 1.38408 35.4214C1.33796 35.4214 1.31488 35.4461 1.31488 35.4955C1.31488 35.5448 1.2918 35.5696 1.24567 35.5696C1.19955 35.5696 1.17647 35.5943 1.17647 35.6437C1.17647 35.6848 1.15339 35.7178 1.12457 35.7178C1.09574 35.7178 1.07266 35.7507 1.07266 35.7919C1.07266 35.8398 1.04958 35.866 1.0073 35.866C0.960034 35.866 0.935675 35.9018 0.919239 35.9957C0.90564 36.0733 0.876297 36.1253 0.846193 36.1253C0.818512 36.1253 0.795848 36.1587 0.795848 36.1994C0.795848 36.2488 0.772768 36.2735 0.726644 36.2735C0.680519 36.2735 0.657439 36.2983 0.657439 36.3476C0.657439 36.397 0.63436 36.4218 0.588235 36.4218C0.542111 36.4218 0.519031 36.4465 0.519031 36.4959C0.519031 36.5452 0.495952 36.57 0.449827 36.57C0.403702 36.57 0.380623 36.5947 0.380623 36.6441C0.380623 36.6935 0.357543 36.7182 0.311419 36.7182C0.253737 36.7182 0.242215 36.7429 0.242215 36.8664C0.242215 36.9734 0.227785 37.0146 0.190311 37.0146C0.154048 37.0146 0.138408 37.0537 0.138408 37.1443C0.138408 37.2348 0.154048 37.2739 0.190311 37.2739C0.219135 37.2739 0.242215 37.3069 0.242215 37.348C0.242215 37.4098 0.265294 37.4221 0.380623 37.4221C0.495952 37.4221 0.519031 37.4345 0.519031 37.4963C0.519031 37.5638 0.542111 37.5704 0.781799 37.5704C1.01543 37.5704 1.04654 37.5786 1.06263 37.6445C1.08069 37.7184 1.10983 37.7186 20 37.7186C38.8902 37.7186 38.9193 37.7184 38.9374 37.6445C38.9535 37.5786 38.9846 37.5704 39.2182 37.5704C39.4579 37.5704 39.481 37.5638 39.481 37.4963C39.481 37.4367 39.5041 37.4221 39.598 37.4221C39.686 37.4221 39.7196 37.4037 39.7332 37.348C39.7431 37.3073 39.7761 37.2739 39.8064 37.2739C39.8464 37.2739 39.8616 37.2382 39.8616 37.1443C39.8616 37.0573 39.8455 37.0146 39.8127 37.0146C39.7827 37.0146 39.7548 36.9575 39.7405 36.8664C39.7261 36.7753 39.6983 36.7182 39.6682 36.7182C39.6413 36.7182 39.6194 36.6848 39.6194 36.6441C39.6194 36.5947 39.5963 36.57 39.5502 36.57C39.504 36.57 39.481 36.5452 39.481 36.4959C39.481 36.4465 39.4579 36.4218 39.4118 36.4218C39.3656 36.4218 39.3426 36.397 39.3426 36.3476C39.3426 36.2983 39.3195 36.2735 39.2734 36.2735C39.2272 36.2735 39.2042 36.2488 39.2042 36.1994C39.2042 36.1587 39.1826 36.1253 39.1563 36.1253C39.13 36.1253 39.1003 36.092 39.0903 36.0512C39.0804 36.0105 39.0481 35.9771 39.0187 35.9771C38.9848 35.9771 38.9567 35.9293 38.9424 35.8475C38.9293 35.7732 38.8991 35.7178 38.8716 35.7178C38.8452 35.7178 38.8235 35.6844 38.8235 35.6437C38.8235 35.5943 38.8004 35.5696 38.7543 35.5696C38.7082 35.5696 38.6851 35.5448 38.6851 35.4955C38.6851 35.4461 38.662 35.4214 38.6159 35.4214C38.5698 35.4214 38.5467 35.3966 38.5467 35.3473C38.5467 35.2979 38.5236 35.2732 38.4775 35.2732C38.4314 35.2732 38.4083 35.2484 38.4083 35.199C38.4083 35.1583 38.3856 35.1249 38.358 35.1249C38.3279 35.1249 38.2985 35.0729 38.2849 34.9953C38.2685 34.9014 38.2441 34.8656 38.1969 34.8656C38.1546 34.8656 38.1315 34.8394 38.1315 34.7915C38.1315 34.7421 38.1084 34.7174 38.0623 34.7174C38.0162 34.7174 37.9931 34.6927 37.9931 34.6433C37.9931 34.6021 37.97 34.5692 37.9412 34.5692C37.9124 34.5692 37.8893 34.5362 37.8893 34.4951C37.8893 34.4457 37.8662 34.421 37.8201 34.421C37.7739 34.421 37.7509 34.3963 37.7509 34.3469C37.7509 34.2975 37.7278 34.2728 37.6817 34.2728C37.6256 34.2728 37.6125 34.248 37.6125 34.1431C37.6125 34.0381 37.5993 34.0134 37.5433 34.0134C37.4971 34.0134 37.474 33.9887 37.474 33.9393C37.474 33.8899 37.451 33.8652 37.4048 33.8652C37.3587 33.8652 37.3356 33.8405 37.3356 33.7911C37.3356 33.7417 37.3126 33.717 37.2664 33.717C37.2203 33.717 37.1972 33.6923 37.1972 33.6429C37.1972 33.5935 37.1742 33.5688 37.128 33.5688C37.0819 33.5688 37.0588 33.5441 37.0588 33.4947C37.0588 33.4539 37.0373 33.4206 37.011 33.4206C36.9846 33.4206 36.9549 33.3872 36.945 33.3465C36.9351 33.3057 36.9021 33.2724 36.8718 33.2724C36.8397 33.2724 36.8166 33.2414 36.8166 33.1983C36.8166 33.1489 36.7935 33.1242 36.7474 33.1242C36.7013 33.1242 36.6782 33.0994 36.6782 33.0501C36.6782 33.0093 36.6555 32.9759 36.6279 32.9759C36.5978 32.9759 36.5684 32.9239 36.5548 32.8463C36.5384 32.7524 36.514 32.7166 36.4667 32.7166C36.4308 32.7166 36.4014 32.6916 36.4014 32.661C36.4014 32.6304 36.3766 32.6054 36.3462 32.6054C36.3159 32.6054 36.2829 32.5721 36.273 32.5313C36.263 32.4906 36.2319 32.4572 36.2038 32.4572C36.1757 32.4572 36.1445 32.4239 36.1346 32.3831C36.1246 32.3424 36.0935 32.309 36.0654 32.309C36.0373 32.309 36.0062 32.2761 35.9964 32.2358C35.9848 32.1882 35.9376 32.1544 35.8612 32.1391C35.7771 32.1222 35.7439 32.0957 35.7439 32.0455C35.7439 32.0003 35.7195 31.9756 35.6747 31.9756C35.6363 31.9756 35.6055 31.9508 35.6055 31.92C35.6055 31.8891 35.5748 31.8644 35.5363 31.8644C35.4902 31.8644 35.4671 31.8397 35.4671 31.7903C35.4671 31.7409 35.444 31.7162 35.3979 31.7162C35.3518 31.7162 35.3287 31.6915 35.3287 31.6421C35.3287 31.5821 35.3056 31.568 35.2076 31.568C35.1279 31.568 35.0865 31.5506 35.0865 31.517C35.0865 31.489 35.0379 31.4557 34.9784 31.4429C34.8587 31.4173 5.11571 31.4203 4.99135 31.4459ZM6.78249 32.5035C6.78273 32.529 6.79235 32.5874 6.80381 32.6332C6.82066 32.7005 6.81052 32.7166 6.75145 32.7166C6.70128 32.7166 6.6782 32.7399 6.6782 32.7907C6.6782 32.8386 6.65512 32.8648 6.61305 32.8648C6.57696 32.8648 6.53979 32.8979 6.52976 32.9389C6.51983 32.9797 6.48869 33.013 6.46055 33.013C6.43246 33.013 6.40132 33.0463 6.39135 33.0871C6.37751 33.1439 6.34415 33.1612 6.24893 33.1612C6.16647 33.1612 6.12457 33.1784 6.12457 33.2122C6.12457 33.2879 5.96391 33.3094 5.39792 33.3094C5.11723 33.3094 4.83889 33.299 4.77941 33.2863C4.67118 33.2631 4.62536 33.1612 4.72318 33.1612C4.75201 33.1612 4.77509 33.1283 4.77509 33.0871C4.77509 33.0366 4.79817 33.013 4.84754 33.013C4.89086 33.013 4.92723 32.9832 4.93806 32.9389C4.95166 32.8832 4.98526 32.8648 5.07325 32.8648C5.16723 32.8648 5.19031 32.8502 5.19031 32.7907C5.19031 32.7413 5.21339 32.7166 5.25952 32.7166C5.30564 32.7166 5.32872 32.6919 5.32872 32.6425C5.32872 32.5807 5.3518 32.5684 5.46713 32.5684C5.56709 32.5684 5.60554 32.5529 5.60554 32.5128C5.60554 32.4656 5.69398 32.4572 6.19377 32.4572C6.64104 32.4572 6.78211 32.4683 6.78249 32.5035ZM8.78893 32.5869C8.78893 32.6726 8.7727 32.7166 8.74107 32.7166C8.71474 32.7166 8.68505 32.7499 8.67509 32.7907C8.66516 32.8314 8.63401 32.8648 8.60588 32.8648C8.57779 32.8648 8.54664 32.8981 8.53668 32.9389C8.52675 32.9797 8.49377 33.013 8.46346 33.013C8.43311 33.013 8.4083 33.0396 8.4083 33.0721C8.4083 33.1045 8.37716 33.1398 8.3391 33.1505C8.30104 33.1611 8.2699 33.1907 8.2699 33.2163C8.2699 33.2418 8.21152 33.273 8.14014 33.2856C7.91948 33.3247 6.8228 33.3131 6.79879 33.2715C6.78675 33.2506 6.78695 33.1844 6.79924 33.1244C6.81727 33.0366 6.84471 33.0107 6.94021 32.9915C7.00768 32.978 7.05882 32.9455 7.05882 32.9163C7.05882 32.888 7.08363 32.8648 7.11398 32.8648C7.14429 32.8648 7.17727 32.8314 7.1872 32.7907C7.19716 32.7499 7.22502 32.7166 7.24914 32.7166C7.27325 32.7166 7.30111 32.6832 7.31107 32.6425C7.32491 32.5857 7.35827 32.5684 7.4535 32.5684C7.54097 32.5684 7.57785 32.5519 7.57785 32.5128C7.57785 32.4655 7.6682 32.4572 8.18339 32.4572H8.78893V32.5869ZM10.7958 32.5869C10.7958 32.6919 10.7827 32.7166 10.7266 32.7166C10.6706 32.7166 10.6574 32.7413 10.6574 32.8463C10.6574 32.9402 10.6422 32.9759 10.6023 32.9759C10.572 32.9759 10.5391 33.0089 10.5293 33.0491C10.5176 33.0968 10.4705 33.1306 10.3941 33.1459C10.3296 33.1588 10.2768 33.1904 10.2768 33.216C10.2768 33.2417 10.2184 33.273 10.1471 33.2856C9.97754 33.3156 9.03644 33.3161 8.89706 33.2863C8.77834 33.2608 8.74734 33.1612 8.85813 33.1612C8.90889 33.1612 8.92734 33.1365 8.92734 33.0686C8.92734 33.0109 8.94695 32.9759 8.97924 32.9759C9.00779 32.9759 9.03114 32.9494 9.03114 32.9169C9.03114 32.8844 9.06228 32.8491 9.10035 32.8385C9.13841 32.8278 9.16955 32.796 9.16955 32.7678C9.16955 32.7397 9.20069 32.7166 9.23875 32.7166C9.28488 32.7166 9.30796 32.6919 9.30796 32.6425C9.30796 32.5807 9.33104 32.5684 9.44637 32.5684C9.54633 32.5684 9.58477 32.5529 9.58477 32.5128C9.58477 32.4655 9.67512 32.4572 10.1903 32.4572H10.7958V32.5869ZM12.6644 32.5128C12.6644 32.5437 12.6951 32.5684 12.7336 32.5684C12.7797 32.5684 12.8028 32.5931 12.8028 32.6425C12.8028 32.6919 12.7797 32.7166 12.7336 32.7166C12.6772 32.7166 12.6644 32.7413 12.6644 32.8498C12.6644 32.9517 12.6482 32.9874 12.5952 33.0023C12.5569 33.013 12.526 33.0528 12.526 33.0914C12.526 33.1365 12.5015 33.1612 12.4567 33.1612C12.4187 33.1612 12.3875 33.1841 12.3875 33.2122C12.3875 33.2904 12.2246 33.3094 11.5528 33.3094H10.9343V33.1612C10.9343 33.0542 10.9487 33.013 10.9862 33.013C11.015 33.013 11.0381 32.9801 11.0381 32.9389C11.0381 32.891 11.0611 32.8648 11.1034 32.8648C11.1507 32.8648 11.1751 32.829 11.1915 32.7353C11.2119 32.6189 11.228 32.6034 11.351 32.5824C11.4333 32.5683 11.4879 32.5386 11.4879 32.5081C11.4879 32.467 11.6007 32.4572 12.0761 32.4572C12.5759 32.4572 12.6644 32.4656 12.6644 32.5128ZM14.6713 32.5128C14.6713 32.5434 14.6946 32.5684 14.7232 32.5684C14.752 32.5684 14.7751 32.6013 14.7751 32.6425C14.7751 32.6837 14.752 32.7166 14.7232 32.7166C14.6857 32.7166 14.6713 32.7578 14.6713 32.8648C14.6713 32.9883 14.6598 33.013 14.6021 33.013C14.556 33.013 14.5329 33.0377 14.5329 33.0871C14.5329 33.1365 14.5098 33.1612 14.4637 33.1612C14.4175 33.1612 14.3945 33.1859 14.3945 33.2353C14.3945 33.3066 14.3714 33.3094 13.776 33.3094C13.4358 33.3094 13.1088 33.299 13.0493 33.2863C12.9538 33.2658 12.9412 33.2485 12.9412 33.1381C12.9412 33.0516 12.9572 33.013 12.9931 33.013C13.0219 33.013 13.045 32.9801 13.045 32.9389C13.045 32.8906 13.0681 32.8648 13.1111 32.8648C13.1614 32.8648 13.1829 32.8291 13.2007 32.7166C13.2226 32.5775 13.2313 32.5684 13.3421 32.5684C13.424 32.5684 13.4602 32.5513 13.4602 32.5128C13.4602 32.4655 13.5506 32.4572 14.0657 32.4572C14.5809 32.4572 14.6713 32.4655 14.6713 32.5128ZM16.6436 32.5128C16.6436 32.5437 16.6744 32.5684 16.7128 32.5684C16.7589 32.5684 16.782 32.5931 16.782 32.6425C16.782 32.6837 16.7589 32.7166 16.7301 32.7166C16.6947 32.7166 16.6781 32.7549 16.6777 32.837C16.677 33.013 16.6422 33.1242 16.5876 33.1242C16.5613 33.1242 16.5398 33.1565 16.5398 33.196C16.5398 33.296 16.3762 33.3156 15.6574 33.302L15.0692 33.2909L15.0588 33.0778C15.0494 32.8841 15.0549 32.8648 15.1194 32.8648C15.1791 32.8648 15.1903 32.8413 15.1903 32.7166V32.5684H15.3287C15.4287 32.5684 15.4671 32.5529 15.4671 32.5128C15.4671 32.4656 15.5556 32.4572 16.0554 32.4572C16.5552 32.4572 16.6436 32.4656 16.6436 32.5128ZM18.6657 32.5543C18.7007 32.7032 18.6497 33.1612 18.5982 33.1612C18.5743 33.1612 18.5466 33.1946 18.5367 33.2353C18.5194 33.3059 18.4895 33.3094 17.8969 33.3094C17.5549 33.3094 17.2264 33.299 17.167 33.2863C17.0619 33.2638 17.0588 33.2574 17.0588 33.0639C17.0588 32.8895 17.0674 32.8648 17.128 32.8648C17.1857 32.8648 17.1972 32.8401 17.1972 32.7166C17.1972 32.5931 17.2088 32.5684 17.2664 32.5684C17.3049 32.5684 17.3356 32.5437 17.3356 32.5128C17.3356 32.4654 17.4314 32.4572 17.9893 32.4572H18.643L18.6657 32.5543ZM20.519 32.5128C20.519 32.5434 20.5492 32.5684 20.5861 32.5684C20.6393 32.5684 20.6581 32.6036 20.677 32.738C20.7003 32.905 20.6762 33.2275 20.6372 33.2694C20.6262 33.2812 20.2993 33.2963 19.9107 33.3029C19.2153 33.3147 19.2042 33.3137 19.2042 33.2381C19.2042 33.1859 19.1819 33.1612 19.1349 33.1612C19.0776 33.1612 19.0657 33.1365 19.0657 33.0173C19.0657 32.9046 19.0807 32.8692 19.1349 32.854C19.188 32.8392 19.2042 32.8035 19.2042 32.7015C19.2042 32.5931 19.217 32.5684 19.2734 32.5684C19.3118 32.5684 19.3426 32.5437 19.3426 32.5128C19.3426 32.4656 19.431 32.4572 19.9308 32.4572C20.4306 32.4572 20.519 32.4656 20.519 32.5128ZM22.526 32.5128C22.526 32.5437 22.5567 32.5684 22.5952 32.5684C22.6528 32.5684 22.6644 32.5931 22.6644 32.7166C22.6644 32.8401 22.6759 32.8648 22.7336 32.8648C22.7912 32.8648 22.8028 32.8895 22.8028 33.013C22.8028 33.1365 22.7912 33.1612 22.7336 33.1612C22.6866 33.1612 22.6644 33.1859 22.6644 33.2381C22.6644 33.3137 22.6533 33.3147 21.9578 33.3029C21.5692 33.2963 21.2387 33.2774 21.2233 33.2609C21.208 33.2444 21.195 33.086 21.1946 32.9089C21.1938 32.6029 21.1976 32.5863 21.2716 32.5751C21.3144 32.5686 21.3495 32.5394 21.3495 32.5102C21.3495 32.4663 21.4506 32.4572 21.9377 32.4572C22.4375 32.4572 22.526 32.4656 22.526 32.5128ZM24.5329 32.5128C24.5329 32.5437 24.5636 32.5684 24.6021 32.5684C24.6598 32.5684 24.6713 32.5931 24.6713 32.7166C24.6713 32.8401 24.6828 32.8648 24.7405 32.8648C24.8011 32.8648 24.8097 32.8895 24.8097 33.0639C24.8097 33.2574 24.8066 33.2638 24.7016 33.2863C24.6421 33.299 24.356 33.3094 24.0657 33.3094C23.4914 33.3094 23.3218 33.2882 23.3218 33.2165C23.3218 33.1908 23.2907 33.1611 23.2526 33.1505C23.1938 33.134 23.1834 33.0999 23.1834 32.9239C23.1834 32.7643 23.1715 32.7166 23.1315 32.7166C23.0545 32.7166 23.0686 32.6171 23.1488 32.5947C23.1869 32.5841 23.218 32.5487 23.218 32.5163C23.218 32.4643 23.297 32.4572 23.8754 32.4572C24.4367 32.4572 24.5329 32.4653 24.5329 32.5128ZM30.4152 32.5128C30.4152 32.5437 30.446 32.5684 30.4844 32.5684C30.5306 32.5684 30.5536 32.5931 30.5536 32.6425C30.5536 32.6919 30.5767 32.7166 30.6228 32.7166C30.669 32.7166 30.692 32.7413 30.692 32.7907C30.692 32.8314 30.7136 32.8648 30.7399 32.8648C30.7662 32.8648 30.7959 32.8981 30.8059 32.9389C30.8158 32.9797 30.8488 33.013 30.8791 33.013C30.9204 33.013 30.9343 33.0503 30.9343 33.1612V33.3094H30.3157C29.6439 33.3094 29.481 33.2904 29.481 33.2122C29.481 33.1841 29.4498 33.1612 29.4118 33.1612C29.3656 33.1612 29.3426 33.1365 29.3426 33.0871C29.3426 33.0377 29.3195 33.013 29.2734 33.013C29.2157 33.013 29.2042 32.9883 29.2042 32.8648C29.2042 32.7413 29.1926 32.7166 29.1349 32.7166C29.0626 32.7166 29.0527 32.6798 29.0875 32.5406C29.1083 32.4579 29.1135 32.4572 29.7618 32.4572C30.3195 32.4572 30.4152 32.4654 30.4152 32.5128ZM32.2837 32.5128C32.2837 32.5529 32.3222 32.5684 32.4221 32.5684C32.5375 32.5684 32.5606 32.5807 32.5606 32.6425C32.5606 32.6919 32.5836 32.7166 32.6298 32.7166C32.6759 32.7166 32.699 32.7413 32.699 32.7907C32.699 32.8319 32.722 32.8648 32.7509 32.8648C32.7797 32.8648 32.8028 32.8977 32.8028 32.9389C32.8028 32.9883 32.8258 33.013 32.872 33.013C32.9181 33.013 32.9412 33.0377 32.9412 33.0871C32.9412 33.1365 32.9643 33.1612 33.0104 33.1612C33.1212 33.1612 33.0902 33.2608 32.9715 33.2863C32.8308 33.3164 31.9735 33.3162 31.7034 33.2859C31.5387 33.2675 31.4899 33.2476 31.4766 33.1933C31.4674 33.1553 31.4349 33.1242 31.4046 33.1242C31.3743 33.1242 31.3495 33.0976 31.3495 33.0651C31.3495 33.0326 31.3183 32.9973 31.2803 32.9867C31.2283 32.9721 31.2111 32.9362 31.2111 32.8419C31.2111 32.7413 31.1974 32.7166 31.1419 32.7166C31.0858 32.7166 31.0727 32.6919 31.0727 32.5869V32.4572H31.6782C32.1934 32.4572 32.2837 32.4655 32.2837 32.5128ZM34.2907 32.5128C34.2907 32.5516 34.3272 32.5684 34.4118 32.5684C34.5098 32.5684 34.5329 32.5825 34.5329 32.6425C34.5329 32.6904 34.556 32.7166 34.598 32.7166C34.6341 32.7166 34.6713 32.7497 34.6813 32.7907C34.6912 32.8314 34.7242 32.8648 34.7545 32.8648C34.7849 32.8648 34.8097 32.888 34.8097 32.9163C34.8097 32.9455 34.8608 32.978 34.9283 32.9915C35.0238 33.0107 35.0512 33.0366 35.0693 33.1244C35.0816 33.1844 35.0818 33.2506 35.0697 33.2715C35.0564 33.2946 34.848 33.3094 34.5359 33.3094C33.8897 33.3094 33.5986 33.279 33.5986 33.2115C33.5986 33.1838 33.5738 33.1612 33.5435 33.1612C33.5131 33.1612 33.4802 33.1279 33.4702 33.0871C33.4602 33.0461 33.423 33.013 33.387 33.013C33.3449 33.013 33.3218 32.9868 33.3218 32.9389C33.3218 32.8958 33.2987 32.8648 33.2666 32.8648C33.2363 32.8648 33.2034 32.8314 33.1934 32.7907C33.1835 32.7499 33.1538 32.7166 33.1274 32.7166C33.0958 32.7166 33.0796 32.6726 33.0796 32.5869V32.4572H33.6851C34.2003 32.4572 34.2907 32.4655 34.2907 32.5128ZM5.98616 33.8652C5.98616 33.9887 5.97464 34.0134 5.91695 34.0134C5.87889 34.0134 5.84775 34.0365 5.84775 34.0646C5.84775 34.0928 5.81661 34.1246 5.77855 34.1353C5.74048 34.1459 5.70934 34.1805 5.70934 34.212C5.70934 34.2483 5.66471 34.2784 5.58824 34.2937C5.51886 34.3077 5.46713 34.34 5.46713 34.3695C5.46713 34.3978 5.43599 34.421 5.39792 34.421C5.3518 34.421 5.32872 34.4457 5.32872 34.4951C5.32872 34.5671 5.30564 34.5692 4.51557 34.5692C3.7255 34.5692 3.70242 34.5671 3.70242 34.4951C3.70242 34.4457 3.7255 34.421 3.77163 34.421C3.81187 34.421 3.84083 34.3963 3.84083 34.3619C3.84083 34.3294 3.87197 34.2941 3.91003 34.2835C3.9481 34.2728 3.97924 34.241 3.97924 34.2128C3.97924 34.1847 4.01038 34.1616 4.04844 34.1616C4.09457 34.1616 4.11765 34.1369 4.11765 34.0875C4.11765 34.0381 4.14073 34.0134 4.18685 34.0134C4.23298 34.0134 4.25606 33.9887 4.25606 33.9393C4.25606 33.8742 4.27913 33.8652 4.44637 33.8652C4.6136 33.8652 4.63668 33.8562 4.63668 33.7911C4.63668 33.7195 4.65976 33.717 5.31142 33.717H5.98616V33.8652ZM7.99308 33.7682C7.99308 33.7964 8.02422 33.8282 8.06228 33.8389C8.10035 33.8495 8.13149 33.8864 8.13149 33.9208C8.13149 33.9552 8.10035 33.992 8.06228 34.0026C8.02398 34.0134 7.99308 34.0532 7.99308 34.0918C7.99308 34.1369 7.96858 34.1616 7.92388 34.1616C7.88543 34.1616 7.85467 34.1863 7.85467 34.2172C7.85467 34.2477 7.82986 34.2728 7.79952 34.2728C7.7692 34.2728 7.73623 34.3061 7.7263 34.3469C7.71626 34.3879 7.6791 34.421 7.64301 34.421C7.60093 34.421 7.57785 34.4472 7.57785 34.4951C7.57785 34.5672 7.55478 34.5692 6.7301 34.5692C5.99962 34.5692 5.88235 34.5615 5.88235 34.5136C5.88235 34.483 5.90571 34.458 5.93426 34.458C5.96308 34.458 5.98616 34.4251 5.98616 34.3839C5.98616 34.3345 6.00924 34.3098 6.05536 34.3098C6.10149 34.3098 6.12457 34.2851 6.12457 34.2357C6.12457 34.1863 6.14765 34.1616 6.19377 34.1616C6.2399 34.1616 6.26298 34.1369 6.26298 34.0875C6.26298 34.0381 6.28606 34.0134 6.33218 34.0134C6.3783 34.0134 6.40138 33.9887 6.40138 33.9393C6.40138 33.8805 6.4246 33.8651 6.51384 33.8647C6.6782 33.8639 6.78201 33.8266 6.78201 33.7682C6.78201 33.7265 6.89505 33.717 7.38754 33.717C7.88003 33.717 7.99308 33.7265 7.99308 33.7682ZM10.1384 33.7911C10.1384 33.8322 10.1615 33.8652 10.1903 33.8652C10.2191 33.8652 10.2422 33.8981 10.2422 33.9393C10.2422 33.9805 10.2191 34.0134 10.1903 34.0134C10.1618 34.0134 10.1384 34.04 10.1384 34.0725C10.1384 34.1049 10.1073 34.1402 10.0692 34.1509C10.0309 34.1616 10 34.2014 10 34.24C10 34.2836 9.97557 34.3098 9.93484 34.3098C9.89875 34.3098 9.86159 34.3429 9.85156 34.3839C9.84163 34.4247 9.80865 34.458 9.77834 34.458C9.74799 34.458 9.72318 34.483 9.72318 34.5136C9.72318 34.5614 9.6117 34.5692 8.92734 34.5692C8.15457 34.5692 8.13149 34.567 8.13149 34.4951C8.13149 34.4543 8.15415 34.421 8.18183 34.421C8.21194 34.421 8.24128 34.3689 8.25488 34.2913C8.27131 34.1974 8.29568 34.1616 8.34294 34.1616C8.38523 34.1616 8.4083 34.1354 8.4083 34.0875C8.4083 34.0381 8.43138 34.0134 8.47751 34.0134C8.52363 34.0134 8.54671 33.9887 8.54671 33.9393C8.54671 33.8805 8.56993 33.8651 8.65917 33.8647C8.82353 33.8639 8.92734 33.8266 8.92734 33.7682C8.92734 33.7265 9.04038 33.717 9.53287 33.717C10.1153 33.717 10.1384 33.7198 10.1384 33.7911ZM12.2491 33.7911C12.2491 33.8405 12.2722 33.8652 12.3183 33.8652C12.3645 33.8652 12.3875 33.8899 12.3875 33.9393C12.3875 33.98 12.3649 34.0134 12.3372 34.0134C12.3073 34.0134 12.2779 34.0647 12.2647 34.1397C12.2507 34.2201 12.2187 34.2726 12.1767 34.2844C12.1404 34.2945 12.1107 34.3294 12.1107 34.3619C12.1107 34.3944 12.0859 34.421 12.0556 34.421C12.0253 34.421 11.9923 34.4543 11.9824 34.4951C11.9649 34.5664 11.9352 34.5692 11.1724 34.5692H10.3806V34.436C10.3806 34.334 10.3968 34.2983 10.4498 34.2835C10.4881 34.2728 10.519 34.233 10.519 34.1943C10.519 34.1493 10.5435 34.1245 10.5882 34.1245C10.6344 34.1245 10.6574 34.0998 10.6574 34.0504C10.6574 34.0093 10.6805 33.9763 10.7093 33.9763C10.7379 33.9763 10.7612 33.9535 10.7612 33.9255C10.7612 33.8948 10.8162 33.8653 10.8997 33.851C10.9892 33.8356 11.0381 33.8078 11.0381 33.7721C11.0381 33.7254 11.1306 33.717 11.6436 33.717C12.2261 33.717 12.2491 33.7198 12.2491 33.7911ZM14.3945 33.7911C14.3945 33.8405 14.4175 33.8652 14.4637 33.8652C14.5098 33.8652 14.5329 33.8899 14.5329 33.9393C14.5329 33.9887 14.5098 34.0134 14.4637 34.0134C14.4028 34.0134 14.3945 34.0381 14.3945 34.2172C14.3945 34.3963 14.3861 34.421 14.3253 34.421C14.2791 34.421 14.2561 34.4457 14.2561 34.4951C14.2561 34.5672 14.233 34.5692 13.391 34.5692C12.549 34.5692 12.526 34.5672 12.526 34.4951C12.526 34.4543 12.5486 34.421 12.5763 34.421C12.6062 34.421 12.6356 34.3696 12.6488 34.2947C12.6628 34.2143 12.6948 34.1617 12.7368 34.15C12.7752 34.1392 12.8028 34.0991 12.8028 34.0539C12.8028 34.0097 12.8251 33.9763 12.8547 33.9763C12.8832 33.9763 12.9066 33.9513 12.9066 33.9208C12.9066 33.8862 12.9392 33.8652 12.9931 33.8652C13.0565 33.8652 13.0796 33.8454 13.0796 33.7911C13.0796 33.7196 13.1027 33.717 13.737 33.717C14.3714 33.717 14.3945 33.7196 14.3945 33.7911ZM16.5398 33.7911C16.5398 33.8405 16.5629 33.8652 16.609 33.8652C16.6851 33.8652 16.6881 33.8768 16.6566 34.0458C16.6447 34.1095 16.6135 34.1616 16.5874 34.1616C16.5561 34.1616 16.5398 34.206 16.5398 34.2913C16.5398 34.3963 16.5266 34.421 16.4706 34.421C16.4245 34.421 16.4014 34.4457 16.4014 34.4951C16.4014 34.567 16.3783 34.5692 15.6055 34.5692H14.8097V34.3654C14.8097 34.209 14.8217 34.1616 14.8616 34.1616C14.8912 34.1616 14.9135 34.1283 14.9135 34.084C14.9135 34.0376 14.9413 33.9987 14.9827 33.9871C15.0208 33.9764 15.0519 33.9446 15.0519 33.9164C15.0519 33.8883 15.083 33.8652 15.1211 33.8652C15.1672 33.8652 15.1903 33.8405 15.1903 33.7911C15.1903 33.7195 15.2134 33.717 15.8651 33.717C16.5167 33.717 16.5398 33.7195 16.5398 33.7911ZM18.6505 33.7911C18.6505 33.8405 18.6736 33.8652 18.7197 33.8652C18.7812 33.8652 18.7889 33.8899 18.7889 34.0875C18.7889 34.2573 18.7771 34.3098 18.7386 34.3098C18.7085 34.3098 18.6791 34.3619 18.6655 34.4395L18.6428 34.5692H17.8508H17.0588V34.2878C17.0588 34.0376 17.0665 34.0043 17.128 33.9871C17.1661 33.9764 17.1972 33.9446 17.1972 33.9164C17.1972 33.8883 17.2284 33.8652 17.2664 33.8652C17.3126 33.8652 17.3356 33.8405 17.3356 33.7911C17.3356 33.7196 17.3587 33.717 17.9931 33.717C18.6274 33.717 18.6505 33.7196 18.6505 33.7911ZM20.7958 33.7911C20.7958 33.8405 20.8189 33.8652 20.8651 33.8652C20.9285 33.8652 20.9343 33.8899 20.9343 34.1616C20.9343 34.4004 20.9242 34.458 20.8824 34.458C20.8538 34.458 20.8305 34.483 20.8305 34.5136C20.8305 34.5614 20.717 34.5692 20.0173 34.5692H19.2042V34.2728C19.2042 34.034 19.2143 33.9763 19.2561 33.9763C19.2846 33.9763 19.308 33.9513 19.308 33.9208C19.308 33.889 19.3391 33.8652 19.3804 33.8652C19.4237 33.8652 19.4601 33.8354 19.4709 33.7911C19.4882 33.7203 19.5181 33.717 20.1425 33.717C20.7728 33.717 20.7958 33.7196 20.7958 33.7911ZM22.9412 33.7911C22.9412 33.8405 22.9643 33.8652 23.0104 33.8652C23.0747 33.8652 23.0796 33.8899 23.0796 34.2172V34.5692H22.2664C21.4764 34.5692 21.4533 34.5671 21.4533 34.4951C21.4533 34.4539 21.4302 34.421 21.4014 34.421C21.3615 34.421 21.3495 34.3736 21.3495 34.2172C21.3495 34.0607 21.3615 34.0134 21.4014 34.0134C21.4302 34.0134 21.4533 33.9805 21.4533 33.9393C21.4533 33.8899 21.4764 33.8652 21.5225 33.8652C21.5686 33.8652 21.5917 33.8405 21.5917 33.7911C21.5917 33.7195 21.6148 33.717 22.2664 33.717C22.9181 33.717 22.9412 33.7195 22.9412 33.7911ZM25.0519 33.7911C25.0519 33.839 25.075 33.8652 25.1173 33.8652C25.1645 33.8652 25.1889 33.901 25.2053 33.9949C25.2189 34.0725 25.2483 34.1245 25.2784 34.1245C25.3169 34.1245 25.3287 34.177 25.3287 34.3469V34.5692H24.5329C23.8783 34.5692 23.737 34.5601 23.737 34.5179C23.737 34.4897 23.7059 34.4579 23.6678 34.4473C23.6062 34.43 23.5986 34.3967 23.5986 34.1431C23.5986 33.8894 23.6062 33.8562 23.6678 33.8389C23.7059 33.8282 23.737 33.7964 23.737 33.7682C23.737 33.7264 23.8578 33.717 24.3945 33.717C25.0288 33.717 25.0519 33.7196 25.0519 33.7911ZM31.3495 33.7911C31.3495 33.8506 31.3726 33.8652 31.4665 33.8652C31.5545 33.8652 31.5881 33.8836 31.6017 33.9393C31.6117 33.98 31.6428 34.0134 31.6709 34.0134C31.699 34.0134 31.7302 34.0467 31.7401 34.0875C31.7501 34.1283 31.7813 34.1616 31.8095 34.1616C31.8407 34.1616 31.8697 34.2123 31.8835 34.2913C31.8971 34.3689 31.9265 34.421 31.9566 34.421C31.9843 34.421 32.0069 34.4543 32.0069 34.4951C32.0069 34.5671 31.9838 34.5692 31.1938 34.5692C30.494 34.5692 30.3806 34.5614 30.3806 34.5136C30.3806 34.483 30.3558 34.458 30.3255 34.458C30.2952 34.458 30.2622 34.4247 30.2523 34.3839C30.2423 34.3432 30.2126 34.3098 30.1863 34.3098C30.16 34.3098 30.1384 34.2784 30.1384 34.24C30.1384 34.2014 30.1075 34.1616 30.0692 34.1509C29.9971 34.1307 29.9767 33.9805 30.0218 33.8004C30.0425 33.7176 30.0477 33.717 30.6961 33.717C31.3264 33.717 31.3495 33.7196 31.3495 33.7911ZM33.4702 33.7911C33.4841 33.8479 33.5174 33.8652 33.6127 33.8652C33.7139 33.8652 33.737 33.8789 33.737 33.9393C33.737 33.9887 33.7601 34.0134 33.8062 34.0134C33.8524 34.0134 33.8754 34.0381 33.8754 34.0875C33.8754 34.1369 33.8985 34.1616 33.9446 34.1616C33.9908 34.1616 34.0138 34.1863 34.0138 34.2357C34.0138 34.2851 34.0369 34.3098 34.083 34.3098C34.1391 34.3098 34.1522 34.3345 34.1522 34.4395V34.5692H33.3604C32.5977 34.5692 32.568 34.5664 32.5505 34.4951C32.5406 34.4543 32.5094 34.421 32.4813 34.421C32.4532 34.421 32.4221 34.3876 32.4121 34.3469C32.4022 34.3061 32.3692 34.2728 32.3389 34.2728C32.3068 34.2728 32.2837 34.2417 32.2837 34.1987C32.2837 34.1493 32.2607 34.1245 32.2145 34.1245C32.1537 34.1245 32.1453 34.0998 32.1453 33.9208V33.717H32.7987C33.423 33.717 33.4529 33.7203 33.4702 33.7911ZM35.6055 33.7911C35.6055 33.8529 35.6286 33.8652 35.7439 33.8652C35.8593 33.8652 35.8824 33.8775 35.8824 33.9393C35.8824 33.9887 35.9054 34.0134 35.9516 34.0134C35.99 34.0134 36.0208 34.0381 36.0208 34.069C36.0208 34.0995 36.0456 34.1245 36.0759 34.1245C36.1062 34.1245 36.1392 34.1579 36.1491 34.1987C36.1591 34.2394 36.1902 34.2728 36.2183 34.2728C36.2465 34.2728 36.2776 34.3061 36.2875 34.3469C36.2975 34.3876 36.3272 34.421 36.3535 34.421C36.3798 34.421 36.4014 34.4543 36.4014 34.4951C36.4014 34.567 36.3783 34.5692 35.6055 34.5692C34.8328 34.5692 34.8097 34.567 34.8097 34.4951C34.8097 34.4457 34.7866 34.421 34.7405 34.421C34.702 34.421 34.6713 34.3963 34.6713 34.3654C34.6713 34.3345 34.6405 34.3098 34.6021 34.3098C34.556 34.3098 34.5329 34.2851 34.5329 34.2357C34.5329 34.1863 34.5098 34.1616 34.4637 34.1616C34.4175 34.1616 34.3945 34.1369 34.3945 34.0875C34.3945 34.0467 34.372 34.0134 34.3446 34.0134C34.2723 34.0134 34.2535 33.9623 34.2778 33.832L34.2993 33.717H34.9524C35.5825 33.717 35.6055 33.7196 35.6055 33.7911ZM4.91349 35.2176C4.91349 35.2481 4.88869 35.2732 4.85834 35.2732C4.82803 35.2732 4.79505 35.3065 4.78512 35.3473C4.77516 35.388 4.74547 35.4214 4.71913 35.4214C4.69284 35.4214 4.67128 35.4547 4.67128 35.4955C4.67128 35.5448 4.6482 35.5696 4.60208 35.5696C4.55595 35.5696 4.53287 35.5943 4.53287 35.6437C4.53287 35.6915 4.50979 35.7178 4.46772 35.7178C4.43163 35.7178 4.39446 35.7509 4.38443 35.7919C4.36907 35.8548 4.33723 35.866 4.1728 35.866C4.03163 35.866 3.97924 35.8798 3.97924 35.9169C3.97924 35.9952 3.81626 36.0142 3.14446 36.0142H2.52595V35.866C2.52595 35.7425 2.53747 35.7178 2.59516 35.7178C2.64128 35.7178 2.66436 35.6931 2.66436 35.6437C2.66436 35.5943 2.68744 35.5696 2.73356 35.5696C2.77163 35.5696 2.80277 35.5453 2.80277 35.5157C2.80277 35.4834 2.85138 35.452 2.92388 35.4374C3.01152 35.4198 3.04498 35.3938 3.04498 35.3431C3.04498 35.2932 3.06976 35.2732 3.13149 35.2732C3.18533 35.2732 3.21799 35.2521 3.21799 35.2176C3.21799 35.1697 3.33526 35.162 4.06574 35.162C4.79623 35.162 4.91349 35.1697 4.91349 35.2176ZM7.19723 35.2211C7.19723 35.2535 7.16609 35.2888 7.12803 35.2995C7.08972 35.3102 7.05882 35.35 7.05882 35.3886C7.05882 35.427 7.03616 35.4584 7.00848 35.4584C6.97837 35.4584 6.94903 35.5105 6.93543 35.5881C6.91478 35.706 6.90208 35.7178 6.79547 35.7178C6.70128 35.7178 6.6782 35.7323 6.6782 35.7919C6.6782 35.8536 6.65512 35.866 6.53979 35.866C6.44543 35.866 6.40138 35.8822 6.40138 35.9169C6.40138 35.9931 6.24031 36.0142 5.65744 36.0142C5.36723 36.0142 5.08111 36.0038 5.02163 35.991C4.92616 35.9706 4.91349 35.9532 4.91349 35.8428C4.91349 35.7425 4.92716 35.7178 4.9827 35.7178C5.02882 35.7178 5.0519 35.6931 5.0519 35.6437C5.0519 35.5943 5.07498 35.5696 5.12111 35.5696C5.16723 35.5696 5.19031 35.5448 5.19031 35.4955C5.19031 35.4461 5.21339 35.4214 5.25952 35.4214C5.30564 35.4214 5.32872 35.3966 5.32872 35.3473C5.32872 35.2873 5.3518 35.2732 5.44983 35.2732C5.53439 35.2732 5.57093 35.2564 5.57093 35.2176C5.57093 35.1697 5.68436 35.162 6.38408 35.162C7.10505 35.162 7.19723 35.1687 7.19723 35.2211ZM9.44637 35.2873C9.44637 35.3816 9.42917 35.4175 9.37716 35.4321C9.3391 35.4427 9.30796 35.478 9.30796 35.5105C9.30796 35.543 9.2846 35.5696 9.25605 35.5696C9.22723 35.5696 9.20415 35.6025 9.20415 35.6437C9.20415 35.6931 9.18107 35.7178 9.13495 35.7178C9.08882 35.7178 9.06574 35.7425 9.06574 35.7919C9.06574 35.8536 9.04266 35.866 8.92734 35.866C8.81201 35.866 8.78893 35.8783 8.78893 35.9401C8.78893 36.0118 8.76585 36.0142 8.06228 36.0142C7.35872 36.0142 7.33564 36.0118 7.33564 35.9401C7.33564 35.8907 7.31256 35.866 7.26644 35.866C7.22031 35.866 7.19723 35.8413 7.19723 35.7919C7.19723 35.7425 7.22031 35.7178 7.26644 35.7178C7.31256 35.7178 7.33564 35.6931 7.33564 35.6437C7.33564 35.5943 7.35872 35.5696 7.40484 35.5696C7.45097 35.5696 7.47405 35.5448 7.47405 35.4955C7.47405 35.4543 7.49713 35.4214 7.52595 35.4214C7.5545 35.4214 7.57785 35.3978 7.57785 35.369C7.57785 35.3369 7.63118 35.3071 7.71626 35.2917C7.80135 35.2763 7.85467 35.2465 7.85467 35.2143C7.85467 35.1708 7.9882 35.162 8.65052 35.162H9.44637V35.2873ZM11.7301 35.2873C11.7301 35.3816 11.7129 35.4175 11.6609 35.4321C11.6079 35.4469 11.5917 35.4826 11.5917 35.5846C11.5917 35.6931 11.5789 35.7178 11.5225 35.7178C11.4764 35.7178 11.4533 35.7425 11.4533 35.7919C11.4533 35.8514 11.4302 35.866 11.3362 35.866C11.2482 35.866 11.2146 35.8844 11.201 35.9401C11.1837 36.0112 11.1538 36.0142 10.4671 36.0142C9.78042 36.0142 9.75055 36.0112 9.73322 35.9401C9.72318 35.8991 9.68602 35.866 9.64993 35.866C9.60785 35.866 9.58477 35.8397 9.58477 35.7919C9.58477 35.7425 9.60785 35.7178 9.65398 35.7178C9.7001 35.7178 9.72318 35.6931 9.72318 35.6437C9.72318 35.5943 9.74626 35.5696 9.79239 35.5696C9.84799 35.5696 9.86159 35.5448 9.86159 35.444C9.86159 35.3298 9.87259 35.3162 9.9827 35.2941C10.0552 35.2796 10.1038 35.2481 10.1038 35.2159C10.1038 35.1703 10.2285 35.162 10.917 35.162H11.7301V35.2873ZM14.0138 35.25C14.0138 35.4132 13.9709 35.5696 13.9261 35.5696C13.9011 35.5696 13.8712 35.6346 13.8581 35.7178C13.8362 35.8568 13.8275 35.866 13.7167 35.866C13.6392 35.866 13.5986 35.8836 13.5986 35.9172C13.5986 35.9912 13.5222 35.997 12.7249 35.9837L12.0069 35.9717V35.7935C12.0069 35.6464 12.019 35.6119 12.0761 35.5959C12.1175 35.5843 12.1453 35.5453 12.1453 35.4989C12.1453 35.4547 12.1676 35.4214 12.1972 35.4214C12.2261 35.4214 12.2491 35.3884 12.2491 35.3473C12.2491 35.2979 12.2722 35.2732 12.3183 35.2732C12.3568 35.2732 12.3875 35.2484 12.3875 35.2176C12.3875 35.1697 12.501 35.162 13.2007 35.162H14.0138V35.25ZM16.263 35.2361C16.263 35.2773 16.2861 35.3102 16.3149 35.3102C16.3434 35.3102 16.3668 35.3352 16.3668 35.3658C16.3668 35.3963 16.3434 35.4214 16.3149 35.4214C16.2774 35.4214 16.263 35.4625 16.263 35.5696C16.263 35.6931 16.2515 35.7178 16.1938 35.7178C16.1476 35.7178 16.1246 35.7425 16.1246 35.7919C16.1246 35.8413 16.1015 35.866 16.0554 35.866C16.0091 35.866 15.9862 35.8907 15.9862 35.9406C15.9862 36.013 15.9656 36.0152 15.3028 36.0127C14.9269 36.0112 14.5688 36.0008 14.5069 35.9895C14.3963 35.9692 14.3945 35.9656 14.3945 35.7692C14.3945 35.6171 14.4067 35.5696 14.446 35.5696C14.4793 35.5696 14.5053 35.5172 14.5196 35.4214C14.5363 35.3096 14.5577 35.2732 14.6065 35.2732C14.6421 35.2732 14.6713 35.2481 14.6713 35.2176C14.6713 35.1698 14.7828 35.162 15.4671 35.162C16.2399 35.162 16.263 35.1641 16.263 35.2361ZM18.5467 35.2176C18.5467 35.2481 18.5701 35.2732 18.5986 35.2732C18.6361 35.2732 18.6505 35.3143 18.6505 35.4214C18.6505 35.5284 18.6361 35.5696 18.5986 35.5696C18.5611 35.5696 18.5467 35.6107 18.5467 35.7178C18.5467 35.8413 18.5352 35.866 18.4775 35.866C18.4394 35.866 18.4083 35.8888 18.4083 35.9167C18.4083 35.9911 18.2208 36.0133 17.5908 36.0138C16.9787 36.0142 16.8166 35.994 16.8166 35.9169C16.8166 35.8889 16.7855 35.866 16.7474 35.866C16.7013 35.866 16.6782 35.8413 16.6782 35.7919C16.6782 35.7507 16.7013 35.7178 16.7301 35.7178C16.7642 35.7178 16.782 35.6812 16.782 35.6112C16.782 35.4272 16.8234 35.2732 16.8728 35.2732C16.899 35.2732 16.9204 35.2481 16.9204 35.2176C16.9204 35.1697 17.0338 35.162 17.7336 35.162C18.4333 35.162 18.5467 35.1697 18.5467 35.2176ZM20.9343 35.514C20.9343 35.8413 20.9294 35.866 20.8651 35.866C20.8189 35.866 20.7958 35.8907 20.7958 35.9401C20.7958 36.0117 20.7728 36.0142 20.1081 36.0142C19.3684 36.0142 19.2042 35.9965 19.2042 35.9169C19.2042 35.8889 19.173 35.866 19.1349 35.866C19.0734 35.866 19.0657 35.8413 19.0657 35.6437C19.0657 35.4738 19.0776 35.4214 19.1161 35.4214C19.1462 35.4214 19.1755 35.3693 19.1891 35.2917L19.2119 35.162H20.073H20.9343V35.514ZM23.2047 35.3102C23.2181 35.3996 23.2457 35.4584 23.2743 35.4584C23.3088 35.4584 23.3218 35.5142 23.3218 35.6622C23.3218 35.8413 23.3134 35.866 23.2526 35.866C23.2145 35.866 23.1834 35.8889 23.1834 35.9169C23.1834 35.9944 23.0212 36.0142 22.3875 36.0142C21.7539 36.0142 21.5917 35.9944 21.5917 35.9169C21.5917 35.8889 21.5606 35.866 21.5225 35.866C21.4596 35.866 21.4533 35.8414 21.4538 35.5974C21.454 35.4496 21.4636 35.2912 21.4751 35.2454L21.496 35.162H22.3393H23.1826L23.2047 35.3102ZM25.4671 35.2361C25.4671 35.2855 25.4902 35.3102 25.5363 35.3102C25.6003 35.3102 25.6055 35.3349 25.6055 35.6389V35.9675L25.4412 35.9876C25.3508 35.9987 24.9926 35.9983 24.6453 35.9867C24.1489 35.9702 24.0138 35.955 24.0138 35.9158C24.0138 35.8884 23.9827 35.866 23.9446 35.866C23.8985 35.866 23.8754 35.8413 23.8754 35.7919C23.8754 35.7425 23.8524 35.7178 23.8062 35.7178C23.7432 35.7178 23.737 35.6931 23.737 35.4399V35.162H24.6021C25.444 35.162 25.4671 35.164 25.4671 35.2361ZM32.2837 35.2176C32.2837 35.2484 32.3145 35.2732 32.3529 35.2732C32.3991 35.2732 32.4221 35.2979 32.4221 35.3473C32.4221 35.3966 32.4452 35.4214 32.4913 35.4214C32.5375 35.4214 32.5606 35.4461 32.5606 35.4955C32.5606 35.5366 32.5836 35.5696 32.6125 35.5696C32.6413 35.5696 32.6644 35.6025 32.6644 35.6437C32.6644 35.6931 32.6874 35.7178 32.7336 35.7178C32.7797 35.7178 32.8028 35.7425 32.8028 35.7919C32.8028 35.8413 32.7797 35.866 32.7336 35.866C32.6955 35.866 32.6644 35.8891 32.6644 35.9172C32.6644 35.9979 32.5485 36.0132 31.9377 36.0132C31.3269 36.0132 31.2111 35.9979 31.2111 35.9172C31.2111 35.8821 31.1674 35.866 31.0727 35.866C30.9573 35.866 30.9343 35.8536 30.9343 35.7919C30.9343 35.7425 30.9112 35.7178 30.8651 35.7178C30.8189 35.7178 30.7958 35.6931 30.7958 35.6437C30.7958 35.6029 30.7744 35.5696 30.7483 35.5696C30.7008 35.5696 30.6574 35.4169 30.6574 35.25V35.162H31.4706C32.1703 35.162 32.2837 35.1697 32.2837 35.2176ZM34.5329 35.2143C34.5329 35.2465 34.5862 35.2763 34.6713 35.2917C34.7763 35.3107 34.8097 35.3338 34.8097 35.3876C34.8097 35.4337 34.8338 35.4584 34.8789 35.4584C34.9173 35.4584 34.9481 35.4831 34.9481 35.514C34.9481 35.5446 34.9695 35.5696 34.9957 35.5696C35.0426 35.5696 35.0865 35.7218 35.0865 35.8845C35.0865 35.9997 34.993 36.0142 34.2485 36.0142C33.6558 36.0142 33.6259 36.0107 33.6087 35.9401C33.5949 35.8839 33.5615 35.866 33.4702 35.866C33.379 35.866 33.3455 35.848 33.3318 35.7919C33.3219 35.7511 33.2922 35.7178 33.2659 35.7178C33.2396 35.7178 33.218 35.6912 33.218 35.6587C33.218 35.6263 33.1869 35.5909 33.1488 35.5803C33.1105 35.5696 33.0796 35.5298 33.0796 35.4911C33.0796 35.4461 33.0551 35.4214 33.0104 35.4214C32.9544 35.4214 32.9412 35.3966 32.9412 35.2917V35.162H33.737C34.3993 35.162 34.5329 35.1708 34.5329 35.2143ZM36.8166 35.2176C36.8166 35.2564 36.8531 35.2732 36.9377 35.2732C37.0357 35.2732 37.0588 35.2873 37.0588 35.3473C37.0588 35.3966 37.0819 35.4214 37.128 35.4214C37.1742 35.4214 37.1972 35.4461 37.1972 35.4955C37.1972 35.5448 37.2203 35.5696 37.2664 35.5696C37.3126 35.5696 37.3356 35.5943 37.3356 35.6437C37.3356 35.6931 37.3587 35.7178 37.4048 35.7178C37.4604 35.7178 37.474 35.7425 37.474 35.8428C37.474 35.9532 37.4614 35.9706 37.3659 35.991C37.3064 36.0038 36.997 36.0142 36.6782 36.0142C36.0531 36.0142 35.8824 35.9942 35.8824 35.921C35.8824 35.8953 35.8279 35.8633 35.7612 35.8499C35.6888 35.8353 35.6401 35.8039 35.6401 35.7717C35.6401 35.742 35.609 35.7178 35.5709 35.7178C35.5307 35.7178 35.5017 35.6931 35.5017 35.6587C35.5017 35.6263 35.4706 35.5909 35.4325 35.5803C35.3942 35.5696 35.3633 35.5298 35.3633 35.4911C35.3633 35.4461 35.3388 35.4214 35.2941 35.4214C35.2381 35.4214 35.2249 35.3966 35.2249 35.2917V35.162H36.0208C36.7051 35.162 36.8166 35.1698 36.8166 35.2176Z" fill="#001148"/>
</svg>
