<svg width="40" height="50" viewBox="0 0 40 50" fill="none" xmlns="http://www.w3.org/2000/svg">
<path fill-rule="evenodd" clip-rule="evenodd" d="M20.8993 0.0121856C17.9827 0.21443 15.5967 0.851619 13.2977 2.04214C11.4433 3.00238 10.077 4.0372 8.67166 5.54576C7.40111 6.90962 6.47391 8.29524 5.70332 9.9817C4.72936 12.1133 4.22393 14.2708 4.09327 16.8546L4.05501 17.6113L2.04504 24.0791C0.939575 27.6363 0.0240264 30.6234 0.0104966 30.717C-0.0483757 31.1239 0.145719 31.6735 0.459283 31.9876C0.800366 32.3293 0.911825 32.362 2.33097 32.536C3.50669 32.6802 3.60469 32.6984 3.74666 32.799C3.83056 32.8585 3.93332 32.9787 3.97498 33.0662C4.04854 33.2206 4.05118 33.3374 4.06506 37.0581C4.07801 40.5357 4.08556 40.9195 4.14666 41.1988C4.3452 42.107 4.82093 42.9252 5.45304 43.4458C5.80252 43.7336 6.40419 44.0447 6.81369 44.1494C7.46784 44.3165 7.49061 44.3152 10.872 43.9097C12.5876 43.704 13.9971 43.542 14.0043 43.5497C14.0115 43.5574 13.9316 44.2543 13.8267 45.0984C13.626 46.7146 13.6018 47.1525 13.6927 47.5184C13.8966 48.3389 14.5186 48.9868 15.2893 49.1814C15.5029 49.2353 16.7502 49.2431 25.2914 49.2436C34.889 49.2442 35.0543 49.2429 35.3459 49.163C35.7613 49.0492 35.9941 48.9036 36.3301 48.5472C36.6715 48.1852 36.8385 47.852 36.9313 47.3476L36.9916 47.0197L36.4438 41.4514C35.9593 36.5267 35.8982 35.8261 35.9153 35.3905C35.95 34.5036 36.0754 34.0429 36.6294 32.7679C37.9844 29.6489 38.9 26.5982 39.4495 23.371C39.9971 20.1545 40.1482 16.7862 39.8484 14.4765C38.9256 7.36604 34.0314 2.11348 26.8291 0.503737C26.0527 0.330226 25.0894 0.178143 24.1956 0.0880425C23.5776 0.0257314 21.4201 -0.0238957 20.8993 0.0121856ZM23.774 1.58827C25.5743 1.72796 27.1276 2.03791 28.6409 2.55955C34.2745 4.50133 37.8846 9.18656 38.4953 15.3489C38.5727 16.1299 38.5501 18.709 38.4565 19.7717C38.0637 24.2304 37.0436 28.2201 35.2553 32.2906C34.4533 34.1162 34.3448 34.9536 34.5953 37.3813C34.867 40.0132 35.5216 46.7579 35.5216 46.9249C35.5216 47.2362 35.3839 47.4798 35.1191 47.6367C35.013 47.6997 34.2683 47.7057 25.4221 47.7158C18.5881 47.7236 15.7818 47.7139 15.6372 47.6818C15.4905 47.6493 15.3936 47.5952 15.2869 47.4861C15.0174 47.2109 15.0173 47.2055 15.2422 45.378C15.3514 44.4905 15.453 43.6728 15.4681 43.561L15.4955 43.3578L16.6834 43.2179C17.9889 43.0643 18.1174 43.0294 18.2957 42.7791C18.4335 42.5856 18.4722 42.191 18.3734 41.9863C18.24 41.7101 18.0068 41.5585 17.722 41.5629C17.6145 41.5646 15.3446 41.8265 12.6779 42.145C9.07 42.5759 7.75094 42.7195 7.52277 42.7063C6.76609 42.6624 6.0868 42.1798 5.73694 41.4375C5.50754 40.9509 5.5118 41.0346 5.51042 36.9503C5.50942 33.8692 5.49957 33.1663 5.4543 32.9376C5.32705 32.2943 4.86842 31.6641 4.32235 31.382C3.94007 31.1845 3.86862 31.1696 2.57842 31.0171C1.96708 30.9448 1.46302 30.8822 1.45827 30.878C1.45352 30.8738 2.34419 27.9953 3.43754 24.4814C5.61087 17.4965 5.47301 18.006 5.54622 16.6883C5.6382 15.0318 5.9231 13.5464 6.43221 12.0686C6.68667 11.33 7.29885 9.99697 7.68662 9.33721C10.279 4.92601 14.8059 2.13318 20.2094 1.61142C20.9046 1.54431 23.0293 1.53051 23.774 1.58827ZM21.7617 3.89103C21.6378 3.94377 21.4653 4.11987 21.3846 4.27602C21.3302 4.38139 21.3213 4.53827 21.3234 5.36379C21.3258 6.26964 21.331 6.33885 21.4088 6.49943C21.682 7.0631 22.4391 7.03576 22.6862 6.45325C22.7477 6.30831 22.7567 6.17104 22.7574 5.3665C22.7582 4.50786 22.7527 4.43331 22.6761 4.26378C22.5216 3.92202 22.0962 3.74859 21.7617 3.89103ZM25.8522 4.43857C25.6446 4.49649 25.5029 4.62062 25.405 4.83017C25.3681 4.90918 25.2458 5.3491 25.1332 5.80773C24.9404 6.59273 24.9312 6.65262 24.9754 6.82962C25.0402 7.08929 25.1434 7.22935 25.348 7.33546C25.6731 7.50396 26.0732 7.38701 26.2695 7.06618C26.355 6.92641 26.7426 5.37738 26.7436 5.17148C26.7446 4.95347 26.6902 4.7995 26.5599 4.65206C26.3611 4.42703 26.1363 4.35922 25.8522 4.43857ZM17.7035 4.48988C17.6323 4.52748 17.5253 4.63018 17.4659 4.7181C17.2772 4.99707 17.2827 5.12493 17.5248 6.08616C17.6536 6.59766 17.7778 7.00428 17.8324 7.09311C18.1801 7.65916 19.0574 7.42059 19.108 6.74621C19.1203 6.58218 19.0787 6.35092 18.9254 5.73322C18.8162 5.29298 18.6898 4.86169 18.6445 4.77483C18.4784 4.45622 18.0266 4.31945 17.7035 4.48988ZM13.9972 6.13718C13.8175 6.2272 13.6982 6.37333 13.6338 6.58214C13.5472 6.8634 13.6014 7.0372 14.0183 7.81428C14.5056 8.72288 14.5998 8.83671 14.9265 8.91203C15.2077 8.97685 15.6147 8.71779 15.7082 8.41436C15.8022 8.10921 15.7484 7.93837 15.297 7.10764C14.8039 6.20031 14.7098 6.09482 14.3734 6.07306C14.2152 6.06284 14.1097 6.08082 13.9972 6.13718ZM29.4437 6.14215C29.3577 6.18898 29.2529 6.27777 29.2106 6.33942C29.0253 6.61001 28.3903 7.84092 28.352 8.00392C28.2348 8.50212 28.6791 9.00131 29.162 8.91392C29.447 8.86236 29.5697 8.71586 30.0173 7.89309C30.444 7.10871 30.5154 6.90929 30.4615 6.65299C30.3616 6.17913 29.8485 5.92155 29.4437 6.14215ZM22.0859 10.1204C22.0007 10.1619 21.8845 10.255 21.8275 10.3275C21.7099 10.4772 21.7342 10.3928 21.2424 12.3625C21.0395 13.1752 20.7533 14.3205 20.6064 14.9075C20.4594 15.4945 20.1752 16.6305 19.9747 17.4319C19.7742 18.2334 19.5153 19.2678 19.3993 19.7306C19.1951 20.5452 18.9398 21.5658 17.8334 25.9905C17.5455 27.1419 16.8729 29.8295 16.3387 31.963C15.8045 34.0964 15.3553 35.9121 15.3404 35.9977C15.3049 36.2025 15.3976 36.4617 15.5704 36.6411C15.6932 36.7686 15.8038 36.8076 17.1702 37.2055C18.7298 37.6597 18.941 37.6975 19.1576 37.5616C19.4612 37.3711 19.3983 37.5838 20.7417 32.2093C21.4274 29.4662 22.1111 26.7324 22.261 26.1341C22.4109 25.5359 22.6973 24.3906 22.8974 23.5892C23.0975 22.7877 23.4256 21.4762 23.6264 20.6747C23.9778 19.2727 24.6796 16.4683 25.4818 13.2608C25.6914 12.4229 25.8629 11.6714 25.8629 11.5908C25.8629 11.3966 25.8039 11.2387 25.6783 11.0966C25.533 10.9321 25.4437 10.8902 24.9238 10.7423C24.6708 10.6703 24.0211 10.4836 23.48 10.3274C22.9389 10.1711 22.4387 10.0437 22.3685 10.0442C22.2983 10.0447 22.1711 10.079 22.0859 10.1204ZM23.5836 11.9506C23.9362 12.0513 24.2342 12.1438 24.2456 12.1561C24.2571 12.1684 24.0549 13.0233 23.7964 14.0561C22.8077 18.0058 21.609 22.7964 20.4968 27.2424C19.8615 29.7823 19.2236 32.3314 19.0792 32.9071C18.9349 33.4828 18.7093 34.3879 18.5779 34.9184C18.4464 35.449 18.3286 35.8949 18.316 35.9094C18.2937 35.9349 16.995 35.5739 16.955 35.531C16.944 35.5193 16.9938 35.2797 17.0655 34.9986C17.1835 34.5365 18.2436 30.3022 20.2097 22.4398C20.6021 20.8707 21.0874 18.9312 21.2881 18.1298C22.3131 14.0375 22.8733 11.794 22.8733 11.7814C22.8733 11.7517 22.9614 11.7728 23.5836 11.9506ZM13.1187 16.2231C12.9488 16.3164 6.35644 23.3792 6.29247 23.5365C6.21681 23.7226 6.22578 23.9861 6.31447 24.1816C6.3656 24.2944 7.46999 25.5025 9.7161 27.9029C12.6021 30.9871 13.0629 31.4636 13.1998 31.5049C13.3932 31.5632 13.4243 31.5634 13.617 31.5076C13.7452 31.4704 13.9668 31.2539 14.9721 30.184C15.6384 29.4748 16.1977 28.846 16.2274 28.7728C16.2975 28.5994 16.2952 28.3442 16.2217 28.1544C16.181 28.0494 15.5561 27.3516 14.2193 25.9184L12.2761 23.835L14.2383 21.7315C15.3184 20.5737 16.2186 19.576 16.2407 19.5125C16.3015 19.3373 16.2873 19.0723 16.2075 18.8891C16.1088 18.6629 13.9 16.3102 13.7044 16.223C13.5228 16.142 13.2663 16.142 13.1187 16.2231ZM27.4918 16.2183C27.4286 16.249 26.8392 16.8532 26.1822 17.561C24.8473 18.9992 24.8526 18.9914 24.9448 19.4174C24.9892 19.6224 25.0428 19.6843 26.9594 21.7425L28.9284 23.857L26.9907 25.9294C25.925 27.0693 25.0303 28.048 25.0026 28.1044C24.914 28.2848 24.8948 28.4741 24.945 28.673C24.9883 28.8448 25.1098 28.9896 26.1635 30.1251C26.8072 30.8188 27.3896 31.4146 27.4577 31.4492C27.65 31.547 27.7887 31.5639 27.9734 31.5121C28.1285 31.4685 28.4371 31.1503 31.4901 27.8859C33.3307 25.9178 34.8594 24.2613 34.8871 24.2049C34.9753 24.0249 34.9948 23.8351 34.9452 23.6363C34.9011 23.4592 34.6595 23.1898 31.578 19.8835C29.3369 17.4789 28.2077 16.2953 28.1025 16.2405C27.9232 16.1472 27.6586 16.1376 27.4918 16.2183ZM12.5883 21.3308C10.9028 23.1424 10.6145 23.4697 10.5762 23.6144C10.5215 23.8213 10.5213 23.8546 10.5733 24.0612C10.6085 24.2014 10.9027 24.5346 12.5853 26.3399L14.556 28.4544L13.9809 29.0693L13.4058 29.6842L10.6847 26.7702L7.96354 23.8562L10.6942 20.9316L13.4247 18.007L13.9902 18.6116L14.5557 19.2161L12.5883 21.3308ZM30.5102 26.76L27.7794 29.6846L27.2142 29.0792L26.6489 28.4738L28.5926 26.3907C29.9343 24.9526 30.5544 24.2602 30.5951 24.1549C30.6634 23.9777 30.6712 23.7261 30.6135 23.561C30.5913 23.4975 29.6904 22.4988 28.6114 21.3418L26.6496 19.238L27.2237 18.6221L27.7979 18.0061L30.5194 20.9208L33.241 23.8354L30.5102 26.76Z" fill="#001148"/>
</svg>
