<svg width="27" height="20" viewBox="0 0 27 20" fill="none" xmlns="http://www.w3.org/2000/svg">
<path fill-rule="evenodd" clip-rule="evenodd" d="M0.435644 0.45644C0.0150297 0.897133 0 1.2171 0 9.78266C0 18.4105 0.0124158 18.6689 0.451544 19.2538L0.902871 19.8552H13.596C25.6161 19.8552 26.3081 19.833 26.6494 19.4377C26.9722 19.0641 27.0099 18.0654 27.0099 9.88787C27.0099 1.33029 26.9848 0.731674 26.6115 0.377704C26.2506 0.0353741 25.0271 0 13.5422 0C1.16164 0 0.861267 0.0104981 0.435644 0.45644ZM24.3597 1.57244C24.2388 1.91066 13.8517 10.714 13.5659 10.7204C13.2497 10.7275 2.83168 1.83786 2.83168 1.5608C2.83168 1.45536 7.69194 1.36932 13.6319 1.36932C19.8518 1.36932 24.4015 1.45536 24.3597 1.57244ZM5.53311 6.04783C7.15305 7.42857 8.4578 8.63151 8.43232 8.72075C8.37525 8.92204 2.29061 16.05 1.84648 16.4362C1.56396 16.682 1.52475 15.8636 1.52475 9.70826V2.70053L2.05624 3.11908C2.34855 3.34913 3.91317 4.6671 5.53311 6.04783ZM25.4851 9.8623C25.4851 15.7718 25.4416 16.71 25.1811 16.4236C23.3026 14.3598 18.7327 8.78648 18.7847 8.62284C18.8655 8.36883 25.0857 2.99995 25.3218 2.98033C25.4115 2.97302 25.4851 6.06974 25.4851 9.8623ZM11.5267 11.1828C12.4084 11.9359 13.2906 12.5521 13.4869 12.5521C13.9121 12.5521 14.5361 12.1221 16.0334 10.7976C16.6453 10.2564 17.2439 9.81347 17.3634 9.81347C17.483 9.81347 19.1753 11.6876 21.1237 13.9785L24.6664 18.1435L19.0858 18.2044C16.0162 18.238 11.0126 18.238 7.96618 18.2044L2.42741 18.1435L6.02364 13.9785C8.00146 11.6876 9.68806 9.81347 9.77148 9.81347C9.85491 9.81347 10.6447 10.4297 11.5267 11.1828Z" fill="white"/>
</svg>
