<svg width="26" height="27" viewBox="0 0 26 27" fill="none" xmlns="http://www.w3.org/2000/svg">
<path fill-rule="evenodd" clip-rule="evenodd" d="M11.9119 0.0264696C6.76358 0.501563 2.456 3.95484 0.709095 9.00757C0.023385 10.9909 -0.18056 13.4721 0.16548 15.6215C0.9165 20.2866 3.94669 24.1546 8.2414 25.9302C8.73658 26.135 8.8764 26.1749 9.10629 26.1773C9.43853 26.1807 9.60957 26.076 9.71323 25.8059C9.78799 25.6111 9.80659 24.5947 9.75411 23.5768L9.72694 23.0495L9.40604 23.114C9.21016 23.1533 8.81404 23.1796 8.38906 23.1816C7.79381 23.1842 7.64095 23.1703 7.33432 23.0852C6.82087 22.9428 6.33552 22.6804 6.00952 22.3689C5.68322 22.0571 5.53851 21.835 5.29613 21.2739C4.94579 20.4626 4.52305 19.8984 3.97766 19.5137C3.67077 19.2972 3.41067 19.0278 3.41067 18.9264C3.41067 18.7409 3.82624 18.6211 4.24367 18.6863C4.37893 18.7073 4.6454 18.8049 4.84512 18.9064C5.28373 19.1294 5.72545 19.5694 6.07445 20.1309C6.46475 20.759 6.90504 21.1469 7.48485 21.3737C7.70204 21.4586 7.816 21.4714 8.34687 21.4705C8.93407 21.4694 8.97554 21.4633 9.38018 21.3171L9.80174 21.1648L9.83279 20.9701C9.90806 20.498 10.1514 19.9274 10.4206 19.5917C10.6108 19.3546 10.6263 19.3697 10.1188 19.2972C7.57623 18.9336 5.92683 17.7661 5.18433 15.8041C4.86668 14.9649 4.70653 13.978 4.70489 12.8499C4.70282 11.4642 4.99903 10.4995 5.73849 9.48359L6.02007 9.09671L5.94218 8.83578C5.69592 8.01067 5.73081 6.89031 6.03293 5.92081C6.08196 5.76353 6.14081 5.61012 6.16381 5.57986C6.21574 5.51144 6.65519 5.50709 6.96309 5.57198C7.61172 5.70867 8.38602 6.05578 9.23978 6.59269C9.74023 6.90742 9.78297 6.92595 9.91481 6.88499C10.623 6.66506 11.5777 6.53382 12.6713 6.50606C13.9305 6.47408 14.9582 6.57857 15.9385 6.83818L16.2523 6.92133L16.8384 6.55622C17.853 5.92415 18.716 5.58408 19.4224 5.53797C19.7174 5.51875 19.8136 5.5268 19.8507 5.574C19.9237 5.66701 20.1073 6.3362 20.1797 6.77346C20.2931 7.45832 20.2412 8.36068 20.0573 8.90436L19.9939 9.0916L20.288 9.49556C21.0158 10.4952 21.3172 11.4838 21.3106 12.8499C21.2933 16.3964 19.8091 18.4204 16.7004 19.1368C16.4336 19.1983 16.0317 19.2727 15.8075 19.3023L15.3996 19.3559L15.5669 19.5541C15.768 19.7923 16.0424 20.3614 16.1314 20.7249C16.2572 21.2383 16.2785 21.7625 16.2533 23.7165L16.2283 25.6522L16.3273 25.8469C16.5313 26.2485 16.8408 26.2928 17.555 26.0227C18.7376 25.5755 20.1953 24.7114 21.2358 23.8409C23.46 21.98 25.1142 19.2106 25.7249 16.3254C25.9434 15.2928 25.9987 14.7138 25.9999 13.4438C26.001 12.4001 25.9877 12.1403 25.9034 11.5521C25.3669 7.8097 23.4181 4.53614 20.4553 2.40079C18.7394 1.16412 16.7877 0.386782 14.6542 0.0903491C14.0562 0.00724413 12.5104 -0.0287871 11.9119 0.0264696ZM4.56815 19.1237C4.52857 19.1905 4.70577 19.3481 4.79926 19.3293C4.83901 19.3213 4.86622 19.2714 4.86622 19.2064C4.86622 19.1159 4.84331 19.0947 4.73307 19.0836C4.65983 19.0762 4.58561 19.0943 4.56815 19.1237ZM5.13927 19.5825C5.03034 19.7194 5.28508 19.9861 5.43337 19.8905C5.5132 19.8391 5.4805 19.6994 5.3668 19.6062C5.23386 19.4972 5.20922 19.4946 5.13927 19.5825ZM5.62614 20.3052C5.59918 20.3938 5.66538 20.5677 5.74798 20.6252C5.89451 20.7272 6.05386 20.6154 5.99762 20.4499C5.92219 20.2281 5.6785 20.1332 5.62614 20.3052ZM6.29012 20.9959C6.19347 21.0366 6.22966 21.2621 6.34855 21.3596C6.47892 21.4665 6.58663 21.4761 6.6576 21.3869C6.72527 21.3019 6.67911 21.1655 6.54562 21.056C6.43644 20.9664 6.38762 20.9549 6.29012 20.9959ZM7.12354 21.6485C7.08143 21.7014 7.08426 21.735 7.13805 21.8207C7.2623 22.0184 7.62965 22.0057 7.62965 21.8037C7.62965 21.6204 7.24083 21.5012 7.12354 21.6485ZM9.22011 21.7051C9.11591 21.8252 9.13215 21.9206 9.2645 21.9651C9.42149 22.018 9.54624 21.9914 9.63805 21.8857C9.74757 21.7594 9.67062 21.6523 9.4584 21.6356C9.33761 21.6261 9.27205 21.6453 9.22011 21.7051ZM8.2044 21.8256C8.16672 21.8649 8.13592 21.914 8.13592 21.9347C8.13592 22.0355 8.28089 22.1146 8.44268 22.1019C8.64013 22.0865 8.73312 21.9814 8.65878 21.8577C8.59503 21.7516 8.29561 21.7305 8.2044 21.8256Z" fill="white"/>
</svg>
