<svg width="40" height="39" viewBox="0 0 40 39" fill="none" xmlns="http://www.w3.org/2000/svg">
<path fill-rule="evenodd" clip-rule="evenodd" d="M19.2326 0.0937754C18.4556 0.221379 17.957 0.448611 17.2489 0.997558C16.7035 1.42042 16.1386 2.16486 15.8815 2.79932C15.5558 3.60301 15.5137 3.82707 15.5099 4.77533C15.5062 5.6766 15.561 6.02524 15.7902 6.55677C15.8215 6.62934 15.877 6.76295 15.9137 6.85367C15.9792 7.01591 16.0094 7.07127 16.2633 7.49446C16.4367 7.78358 16.8933 8.29538 17.1967 8.54063C17.7788 9.01119 18.039 9.13892 19.1431 9.49653C19.4839 9.60692 20.553 9.56984 21.0875 9.42917C21.5973 9.29503 22.3192 8.95214 22.6468 8.68855C23.0829 8.33774 23.7035 7.61494 23.9311 7.19287C23.9828 7.09707 24.0409 7.00377 24.0603 6.98563C24.1067 6.94228 24.3361 6.24891 24.4424 5.83099C24.552 5.39989 24.5512 4.13665 24.4411 3.75265C24.0839 2.50716 23.8533 2.08826 23.0854 1.2909C22.7654 0.958696 21.9577 0.415886 21.6758 0.343639C21.5897 0.321602 21.4849 0.275152 21.443 0.240447C21.3582 0.170179 20.2466 -0.00895399 19.953 0.000349075C19.8496 0.00364803 19.5254 0.0456765 19.2326 0.0937754ZM6.76586 2.93365C6.29826 3.0214 5.38763 3.39412 5.38763 3.49777C5.38763 3.52905 5.3511 3.55471 5.30644 3.55471C5.18497 3.55471 4.41547 4.38988 4.28216 4.66646C4.21826 4.79895 4.14904 4.92213 4.1283 4.94028C4.10756 4.95842 4.02462 5.16625 3.94406 5.40213C3.73381 6.01745 3.72874 7.225 3.93384 7.83148C4.07242 8.24108 4.21212 8.51668 4.3688 8.68928C4.41234 8.73724 4.44792 8.79755 4.44792 8.82335C4.44792 8.89817 5.02609 9.51316 5.23157 9.65693C6.12241 10.2802 7.08573 10.4848 8.0364 10.2526C9.15552 9.97924 9.96291 9.29424 10.4809 8.17886L10.7439 7.61243V6.62274V5.63306L10.5109 5.13821C10.3828 4.86605 10.2419 4.58485 10.1977 4.51332C10.1005 4.3559 9.36 3.55471 9.31164 3.55471C9.29272 3.55471 9.14211 3.47224 8.97692 3.37142C8.81172 3.27061 8.51477 3.13555 8.31699 3.07135C7.96153 2.95589 7.06919 2.87671 6.76586 2.93365ZM32.2005 2.93332C31.7512 3.01731 31.3361 3.18681 30.7519 3.52476C30.4606 3.69333 29.7814 4.51425 29.5746 4.9478C29.3049 5.51304 29.2354 5.84564 29.2316 6.58975C29.2278 7.35003 29.3128 7.77197 29.5727 8.28159C29.9903 9.10053 30.3805 9.51138 31.1587 9.95152C32.0697 10.4669 33.32 10.4641 34.2991 9.9444C35.1985 9.4671 35.7203 8.81814 36.121 7.67841C36.2835 7.21603 36.2854 6.10811 36.1245 5.57935C35.9307 4.94258 35.4734 4.16832 35.1323 3.89965C35.0737 3.85347 34.9891 3.77884 34.9443 3.73385C34.7296 3.5179 34.2076 3.21736 33.7772 3.06198C33.4874 2.95734 32.502 2.87691 32.2005 2.93332ZM15.6304 9.39934C15.4926 9.48532 15.3234 9.58343 15.2545 9.61734C15.0817 9.70232 14.4246 10.197 14.0613 10.5155C13.3631 11.1277 12.5659 12.0993 12.1122 12.891C11.795 13.4447 11.3635 14.4468 11.2175 14.9691C11.1414 15.2413 11.0542 15.5382 11.0236 15.6289C10.9384 15.8817 10.827 16.7189 10.7932 17.3609L10.7628 17.9382H20.0095C27.3651 17.9382 29.256 17.9213 29.2559 17.8557C29.2558 17.8104 29.2271 17.4318 29.1921 17.0145C29.1252 16.2156 28.9683 15.4425 28.7503 14.8371C28.6785 14.6376 28.5926 14.3789 28.5597 14.2622C28.5267 14.1456 28.4725 14.0325 28.4393 14.0109C28.4061 13.9893 28.379 13.9297 28.379 13.8785C28.379 13.8272 28.2522 13.5593 28.0971 13.2831C27.9421 13.0069 27.8152 12.7673 27.8152 12.7507C27.8152 12.7195 27.5816 12.3611 27.4706 12.2219C27.4362 12.1788 27.3379 12.0443 27.2524 11.9232C27.0814 11.6815 26.14 10.674 25.8418 10.4137C25.5506 10.1595 24.8085 9.6248 24.747 9.6248C24.7166 9.6248 24.6541 9.58772 24.608 9.54232C24.562 9.49699 24.4197 9.40363 24.2919 9.33488L24.0595 9.20992L23.562 9.61523C22.6637 10.3471 21.7515 10.7365 20.6073 10.8768C19.7539 10.9814 18.6696 10.8335 17.9483 10.514C17.2164 10.1898 16.5755 9.78354 16.1672 9.38483C15.9761 9.19824 15.9515 9.1989 15.6304 9.39934ZM3.74315 10.396C3.68282 10.4127 3.63352 10.4501 3.63352 10.4794C3.63352 10.5086 3.54894 10.5694 3.44558 10.6145C3.34221 10.6595 3.25764 10.7226 3.25764 10.7544C3.25764 10.7864 3.21535 10.8124 3.16366 10.8124C3.11198 10.8124 3.06969 10.8357 3.06969 10.8641C3.06969 10.8927 2.9803 10.9716 2.87104 11.0395C2.5672 11.2286 1.66496 12.2147 1.30976 12.7461C0.979045 13.2409 0.479937 14.2648 0.403132 14.6062C0.378638 14.7151 0.335912 14.8348 0.30816 14.8724C0.280407 14.9099 0.227972 15.1178 0.191762 15.3342C0.155489 15.5507 0.0987314 15.8615 0.0656539 16.0248C0.0325137 16.1881 0.0042599 16.6854 0.00275638 17.1299L0 17.9382H4.72984H9.45967V17.7272C9.45967 17.1882 9.72022 15.559 9.92714 14.8042C10.1049 14.1557 10.3538 13.4978 10.6262 12.9567C10.9218 12.3694 10.9961 12.2296 11.0292 12.198C11.0482 12.1798 11.1308 12.0462 11.2127 11.9011C11.2946 11.7559 11.4411 11.529 11.5383 11.3967C11.6355 11.2645 11.7143 11.1309 11.7136 11.0998C11.7116 11.0125 11.1059 10.5699 10.777 10.4154C10.611 10.3374 10.3367 10.4194 10.3367 10.5471C10.3367 10.5841 10.3055 10.6145 10.2674 10.6145C10.2294 10.6145 10.0954 10.698 9.96987 10.8001C9.67536 11.0397 8.98907 11.3917 8.70791 11.4473C8.58731 11.4712 8.44905 11.5237 8.40069 11.564C8.34512 11.6102 7.96504 11.6372 7.36702 11.6372C6.40789 11.6372 5.94362 11.554 5.50327 11.303C5.41181 11.2509 5.30813 11.2083 5.2728 11.2083C5.17137 11.2083 4.48746 10.7624 4.25798 10.5466C4.05588 10.3566 3.97375 10.3326 3.74315 10.396ZM29.2561 10.3987C29.0288 10.4898 28.3164 11.0231 28.3164 11.1021C28.3164 11.1501 28.4102 11.3198 28.5249 11.4792C29.0174 12.1639 29.6074 13.33 29.9068 14.2103C30.2458 15.2071 30.5029 16.6136 30.5069 17.4932L30.509 17.939L35.2545 17.9221L40 17.9052L39.9964 17.0804C39.9944 16.6268 39.9566 16.0479 39.9124 15.7938C39.8252 15.2928 39.4785 14.0988 39.4047 14.0454C39.3796 14.0273 39.3379 13.9409 39.312 13.8535C39.246 13.6314 38.7096 12.704 38.61 12.64C38.5648 12.611 38.5278 12.557 38.5278 12.5198C38.5278 12.4586 38.2294 12.1016 37.752 11.5917C37.5407 11.3661 36.6143 10.6145 36.5474 10.6145C36.5222 10.6145 36.4571 10.5723 36.4028 10.5207C36.2468 10.3727 35.9893 10.3284 35.89 10.4324C35.7696 10.5583 34.8585 11.2083 34.8022 11.2083C34.7771 11.2083 34.6678 11.2482 34.5592 11.297C33.9375 11.5765 33.6118 11.6372 32.733 11.6372C32.0668 11.6372 31.7655 11.6085 31.48 11.5177C31.0039 11.3664 29.9437 10.8191 29.9013 10.7026C29.8836 10.6541 29.8428 10.6145 29.8106 10.6145C29.7784 10.6145 29.6915 10.5551 29.6175 10.4825C29.4795 10.3471 29.4195 10.3331 29.2561 10.3987ZM0.0539389 19.6188C0.0376507 19.6359 0.0450431 19.8067 0.0703525 19.9982C0.0956618 20.1897 0.14603 20.5988 0.182302 20.9072C0.218512 21.2157 0.275333 21.572 0.308536 21.699C0.341738 21.826 0.427502 22.1971 0.499107 22.5237C0.713109 23.4994 0.825059 23.9069 0.891088 23.9507C0.953923 23.9923 1.39314 24.0689 2.38058 24.2103C2.67345 24.2522 3.58966 24.3015 4.4166 24.3198C5.77228 24.3498 5.9309 24.3651 6.02976 24.4748C6.09009 24.5418 6.13939 24.6357 6.13939 24.6836C6.13939 24.7315 6.17779 24.8292 6.22465 24.9008C6.27157 24.9723 6.41309 25.2388 6.53914 25.4928C6.66518 25.7468 6.94741 26.2391 7.16623 26.5868L7.56417 27.219L7.45598 27.4532C7.3662 27.6476 7.15633 28.0391 6.82688 28.6268C6.74506 28.7728 6.34086 29.6518 6.12918 30.1443C5.65663 31.2437 5.59023 31.4099 5.54211 31.6129C5.51843 31.7131 5.47395 31.8113 5.44332 31.8313C5.41269 31.8513 5.38763 31.9361 5.38763 32.0199C5.38763 32.1917 6.40326 33.2573 7.20439 33.926C7.4628 34.1417 7.68833 34.3387 7.70556 34.3638C7.72279 34.3888 7.93422 34.5531 8.17541 34.729C8.4166 34.9048 8.69851 35.1106 8.80188 35.1862C8.90525 35.2618 8.99922 35.3459 9.01068 35.3732C9.05535 35.4789 9.29716 35.4139 9.56335 35.2247C9.71652 35.1158 9.85572 35.0268 9.87264 35.0268C9.88962 35.0268 9.93754 34.997 9.97914 34.9605C10.0826 34.8699 10.8175 34.3519 10.9765 34.2575C11.0474 34.2154 11.1228 34.1561 11.1439 34.1255C11.1651 34.095 11.3234 33.9691 11.4957 33.8456C11.668 33.7222 11.8371 33.5882 11.8716 33.5479C11.906 33.5075 12.1315 33.3116 12.3727 33.1125C12.6138 32.9134 12.8675 32.6893 12.9365 32.6144C13.2115 32.316 13.3389 32.2607 13.521 32.3608C13.613 32.4114 13.7236 32.4529 13.7666 32.4532C13.8097 32.4534 13.8449 32.4809 13.8449 32.5144C13.8449 32.5477 13.9366 32.5957 14.0486 32.6209C14.1606 32.6461 14.2803 32.6894 14.3148 32.7171C14.3493 32.7448 14.5748 32.8354 14.816 32.9184C15.0572 33.0014 15.2827 33.0907 15.3171 33.1169C15.3516 33.143 15.5038 33.186 15.6553 33.2123C15.8069 33.2387 16.0194 33.2992 16.1276 33.3468C16.3119 33.4279 16.3293 33.4658 16.406 33.9497C16.4509 34.2336 16.5242 34.6144 16.569 34.7958C16.6138 34.9773 16.6676 35.2712 16.6886 35.449C16.7097 35.6268 16.7514 35.8049 16.7815 35.8448C16.8116 35.8848 16.8561 36.0624 16.8805 36.2395C16.9048 36.4166 16.9486 36.6244 16.9777 36.7013C17.0069 36.7783 17.137 37.2023 17.2671 37.6437C17.3971 38.085 17.537 38.4944 17.5779 38.5534C17.7026 38.7329 19.6461 38.8246 21.2346 38.726C21.9396 38.6822 22.5386 38.6319 22.5659 38.6141C22.5932 38.5964 22.6155 38.5361 22.6155 38.4803C22.6155 38.4244 22.6552 38.2851 22.7036 38.1707C22.7521 38.0564 22.8366 37.7995 22.8913 37.6C22.946 37.4004 23.0646 36.9699 23.1549 36.6433C23.2452 36.3167 23.3595 35.8268 23.409 35.5546C23.6405 34.2813 23.6915 33.9859 23.7222 33.7402C23.7584 33.4504 23.9384 33.2492 24.1636 33.2468C24.3427 33.2449 25.6474 32.7783 25.6747 32.7064C25.6863 32.6762 25.7381 32.6515 25.7899 32.6515C25.8418 32.6515 26.0669 32.5625 26.2902 32.4536C26.5136 32.3447 26.7251 32.2556 26.7602 32.2556C26.8134 32.2556 27.4615 32.7923 27.5646 32.9218C27.5818 32.9434 27.906 33.2059 28.285 33.505C28.6641 33.8042 29.0238 34.0909 29.0845 34.142C29.1452 34.1932 29.2098 34.235 29.228 34.235C29.2598 34.235 29.6297 34.4966 29.6946 34.5649C29.7285 34.6006 29.7416 34.6091 30.4576 35.0604C30.9596 35.3769 30.9822 35.3791 31.2889 35.1405C32.2819 34.3678 32.7971 33.9577 32.8242 33.9181C32.843 33.8909 33.0391 33.7061 33.2601 33.5075C33.9236 32.9111 34.7063 32.0527 34.7063 31.9213C34.7063 31.8084 34.6488 31.6428 34.4214 31.101C34.3758 30.9921 34.2636 30.7249 34.1723 30.5072C33.9194 29.9046 33.4915 28.9938 33.4434 28.956C33.42 28.9375 33.3813 28.841 33.3576 28.7416C33.3339 28.6422 33.2894 28.5608 33.2587 28.5608C33.2279 28.5608 33.2028 28.5288 33.2028 28.4898C33.2028 28.4507 33.0454 28.1408 32.8529 27.8012C32.528 27.2278 32.509 27.1718 32.5867 27.0174C32.7216 26.7493 33.4166 25.5618 33.4597 25.5258C33.4814 25.5076 33.5209 25.4186 33.5474 25.3278C33.5739 25.2371 33.613 25.148 33.6342 25.1299C33.6829 25.0882 33.9546 24.5047 33.9546 24.4417C33.9546 24.4158 33.993 24.3542 34.0399 24.3048C34.1037 24.2377 34.3441 24.215 34.9915 24.215C36.0706 24.215 36.9015 24.1634 37.87 24.0365C38.2835 23.9823 38.7409 23.9223 38.8866 23.9033C39.192 23.8634 39.2219 23.8275 39.3213 23.3815C39.3618 23.2 39.4397 22.8586 39.4944 22.6227C39.7283 21.6158 39.9952 19.7665 39.9253 19.6371C39.8871 19.5663 38.4796 19.5757 38.4377 19.647C38.4185 19.6797 38.375 19.9894 38.341 20.3353C38.3069 20.6811 38.2502 21.0924 38.2149 21.2491C38.1797 21.4058 38.1079 21.7254 38.0555 21.9593C38.0031 22.1933 37.9528 22.3926 37.9436 22.4022C37.8687 22.4812 36.1821 22.5776 34.7776 22.5833L33.0634 22.5902L32.9498 22.8539C32.8873 22.9989 32.7753 23.266 32.701 23.4474C32.5149 23.9016 32.1557 24.6603 32.0136 24.899C31.9488 25.0078 31.8394 25.2054 31.7704 25.3379C31.6137 25.6392 31.0446 26.4821 30.8451 26.7086C30.6051 26.9811 30.6055 27.083 30.8487 27.4689C30.972 27.6644 31.0728 27.854 31.0728 27.8902C31.0728 27.9264 31.0954 27.9659 31.1231 27.978C31.1922 28.0082 31.6366 28.7913 31.6366 28.8829C31.6366 28.9234 31.6613 28.9567 31.6916 28.9567C31.7519 28.9567 32.639 30.7989 32.639 30.9242C32.639 30.967 32.6672 31.002 32.7016 31.002C32.7361 31.002 32.7643 31.0346 32.7643 31.0746C32.7643 31.1144 32.8113 31.2514 32.8687 31.3789L32.9732 31.6106L32.6964 31.8758C32.1496 32.3997 31.9753 32.5578 31.5857 32.8826C31.3681 33.064 31.1312 33.2643 31.0592 33.3278C30.9873 33.3913 30.9098 33.4433 30.887 33.4433C30.8363 33.4433 29.4124 32.4235 29.3187 32.32C29.3015 32.301 29.0901 32.1236 28.8489 31.9258C28.6077 31.7279 28.3962 31.5466 28.379 31.5228C28.3618 31.499 28.2208 31.3691 28.0658 31.2341C27.9107 31.099 27.657 30.8654 27.502 30.7149C26.999 30.2266 27.0687 30.2396 26.5208 30.5327C26.0496 30.7848 25.4219 31.0916 25.03 31.2613C24.4284 31.522 22.8351 31.9917 22.5528 31.9917C22.4281 31.9917 22.4172 32.0293 22.3031 32.8495C22.1746 33.7742 22.034 34.597 21.9488 34.9233C21.902 35.1023 21.8637 35.3141 21.8637 35.3941C21.8637 35.474 21.8229 35.6839 21.773 35.8604C21.723 36.037 21.6341 36.3596 21.5755 36.5773C21.5169 36.795 21.4317 37.0157 21.3863 37.0678C21.3202 37.1436 21.0549 37.1632 20.0521 37.1667C19.2512 37.1695 18.7765 37.146 18.7342 37.1014C18.6652 37.0288 18.5175 36.5265 18.4151 36.0165C18.3823 35.8532 18.33 35.6453 18.2988 35.5546C18.1747 35.1935 17.903 33.6835 17.7846 32.6962C17.7046 32.0293 17.7456 32.0685 16.946 31.8945C16.6703 31.8345 16.4008 31.7609 16.3471 31.7309C16.2934 31.701 16.0895 31.6415 15.894 31.5987C15.6985 31.5559 15.5223 31.4933 15.5025 31.4595C15.4826 31.4256 15.403 31.3979 15.3254 31.3979C15.2479 31.3979 15.1298 31.3543 15.0629 31.3011C14.996 31.2478 14.9054 31.2032 14.8616 31.2021C14.8179 31.2009 14.6064 31.1135 14.3918 31.0078C14.1772 30.9022 13.9593 30.7981 13.9076 30.7766C13.8559 30.7552 13.6727 30.6506 13.5004 30.5443C13.3281 30.438 13.1509 30.3491 13.1068 30.3466C13.0626 30.3442 12.9277 30.4462 12.8071 30.5732C12.6865 30.7002 12.5742 30.8041 12.5576 30.8041C12.5409 30.8041 12.4079 30.9313 12.2621 31.0867C12.1162 31.2421 11.8559 31.4861 11.6836 31.6288C11.5114 31.7715 11.3563 31.9048 11.3391 31.925C11.2459 32.034 10.3839 32.7095 9.86631 33.0791C9.46262 33.3674 9.23527 33.4909 9.16147 33.4621C9.01425 33.4048 7.95233 32.507 7.50027 32.0577L7.13516 31.6948L7.2951 31.3488C7.38299 31.1584 7.45497 30.9848 7.45497 30.9629C7.45497 30.8609 8.45056 28.8416 8.56695 28.7076C8.61005 28.6579 8.64526 28.5877 8.64526 28.5515C8.64526 28.5153 8.72984 28.3561 8.8332 28.1979C8.93657 28.0397 9.02114 27.8785 9.02114 27.8397C9.02114 27.8008 9.04589 27.7691 9.07621 27.7691C9.10647 27.7691 9.1663 27.68 9.20908 27.5711C9.25187 27.4623 9.3117 27.3732 9.34196 27.3732C9.42709 27.3732 9.40699 26.9906 9.31872 26.9311C9.2141 26.8606 8.86653 26.3801 8.81529 26.2351C8.79286 26.1716 8.74543 26.1196 8.70985 26.1196C8.67433 26.1196 8.64526 26.0887 8.64526 26.051C8.64526 25.9728 8.38772 25.5702 8.31637 25.5368C8.29056 25.5247 8.26938 25.4825 8.26938 25.443C8.26938 25.4035 8.23041 25.3243 8.1828 25.2671C8.06139 25.121 7.38788 23.7259 7.20883 23.2495C6.97598 22.6301 7.0685 22.6668 5.85904 22.7133C4.91408 22.7496 3.32529 22.6894 2.40445 22.5824C2.09904 22.5469 2.08069 22.5336 2.01892 22.3035C1.90177 21.8669 1.75436 21.0813 1.69096 20.5556C1.6567 20.2714 1.61153 19.9671 1.5906 19.8793C1.56755 19.7823 1.57983 19.7196 1.62205 19.7196C1.6602 19.7196 1.69146 19.6899 1.69146 19.6536C1.69146 19.5882 0.114832 19.5547 0.0539389 19.6188ZM10.9304 19.8991C10.9549 20.0725 10.9972 20.2441 11.0245 20.2804C11.0517 20.3167 11.094 20.4449 11.1185 20.5653C11.1429 20.6857 11.2024 20.8638 11.2506 20.9611C11.2989 21.0585 11.3384 21.1741 11.3387 21.2181C11.3391 21.2974 11.7135 22.1405 11.8587 22.3891C12.3239 23.1857 12.5551 23.5464 12.6003 23.5464C12.6302 23.5464 12.6547 23.5733 12.6547 23.606C12.6547 23.7748 14.1177 25.3278 14.2767 25.3278C14.3115 25.3278 14.3624 25.3664 14.39 25.4137C14.5865 25.7504 16.8561 26.9773 17.2824 26.9773C17.3517 26.9773 17.4248 27.0053 17.4449 27.0395C17.465 27.0736 17.6147 27.121 17.7775 27.1448C17.9404 27.1685 18.2327 27.2296 18.4272 27.2805C19.0013 27.431 20.9551 27.4062 21.7887 27.2379C22.1573 27.1634 22.5047 27.0764 22.5608 27.0444C22.6169 27.0125 22.7652 26.9661 22.8904 26.9414C23.0156 26.9166 23.1335 26.87 23.1524 26.8379C23.1712 26.8057 23.2347 26.7794 23.2933 26.7794C23.5006 26.7794 24.9938 25.9343 25.5082 25.5258C26.2688 24.9218 27.6273 23.4449 27.6273 23.2219C27.6273 23.1827 27.6509 23.1505 27.6798 23.1505C27.7088 23.1505 27.7655 23.0838 27.8059 23.0021C27.8464 22.9204 27.9639 22.7052 28.0672 22.5237C28.4842 21.7907 29.1308 20.0615 29.1308 19.679C29.1308 19.5525 27.4464 19.5437 27.4148 19.6701C27.2018 20.5218 26.6723 21.6384 26.1061 22.4301C25.6439 23.0762 25.038 23.7361 24.7298 23.9289C24.6351 23.9882 24.5576 24.06 24.5576 24.0885C24.5576 24.1169 24.5153 24.1402 24.4636 24.1402C24.4119 24.1402 24.3696 24.1706 24.3696 24.2078C24.3696 24.245 24.3062 24.3048 24.2287 24.3406C24.1511 24.3764 23.989 24.4689 23.8684 24.5459C23.5073 24.7767 22.8195 25.1299 22.7302 25.1303C22.6844 25.1306 22.5716 25.1721 22.4797 25.2225C22.3877 25.2731 22.1904 25.3356 22.0412 25.3616C21.8919 25.3875 21.7413 25.4327 21.7066 25.4621C21.6719 25.4915 21.2772 25.5463 20.8295 25.5839C19.9826 25.6551 18.5969 25.5886 18.2929 25.4621C18.2067 25.4263 18.0235 25.3691 17.8857 25.3352C17.3604 25.2055 15.9123 24.5125 15.9123 24.3907C15.9123 24.3618 15.882 24.3382 15.8449 24.3382C15.7366 24.3382 15.0387 23.7508 14.5925 23.284C14.1565 22.828 13.5944 22.0868 13.5944 21.9679C13.5944 21.9289 13.5689 21.8969 13.5379 21.8969C13.5068 21.8969 13.4502 21.8152 13.4122 21.7155C13.3742 21.6157 13.2791 21.4153 13.2007 21.2701C13.02 20.9353 12.6698 20.0025 12.6434 19.7856L12.6233 19.6206L11.7545 19.6022L10.8858 19.5838L10.9304 19.8991Z" fill="#001148"/>
</svg>
