<svg width="17" height="20" viewBox="0 0 17 20" fill="none" xmlns="http://www.w3.org/2000/svg">
<path fill-rule="evenodd" clip-rule="evenodd" d="M3.57957 0.0436932C2.61725 0.232365 1.89342 0.615987 1.32405 1.23904C0.56509 2.06959 0.125194 3.14726 0.0178793 4.43897C-0.156534 6.53821 0.94995 9.42281 3.12467 12.5385C4.16924 14.0351 5.71917 15.8726 6.76173 16.8505C7.61874 17.6543 8.51726 18.3515 9.48636 18.9646C10.2114 19.4233 11.0091 19.7217 11.8722 19.8572C12.2902 19.9228 13.1761 19.9238 13.5758 19.8591C13.9096 19.8051 14.4023 19.6388 14.692 19.4824C15.4533 19.0712 16.1399 18.3091 16.5509 17.4188C16.873 16.7211 16.9951 16.2301 16.9996 15.6131C17.0021 15.289 16.9937 15.221 16.9368 15.1045C16.8506 14.9276 16.7161 14.7864 16.4737 14.6178C16.1097 14.3648 14.9012 13.7446 14.2929 13.4986C14.1678 13.4481 13.9155 13.3373 13.7322 13.2526C13.5488 13.1678 13.1811 13.0201 12.9149 12.9242C12.2101 12.6704 12.0555 12.6869 11.6925 13.0545C11.4791 13.2707 11.3081 13.5105 11.1086 13.8733C10.9079 14.2382 10.6934 14.4863 10.5153 14.5593C10.3891 14.611 10.3694 14.611 10.1974 14.5597C9.99857 14.5003 9.75476 14.3772 9.61053 14.2631C9.56052 14.2236 9.38323 14.0838 9.21655 13.9525C8.4181 13.3234 8.15395 13.0988 7.7532 12.7081C6.67348 11.6555 5.75517 10.3167 5.09186 8.82803C4.71969 7.99282 4.59483 7.58164 4.59483 7.19132C4.59483 7.05916 4.61035 7.01289 4.68236 6.93012C4.77188 6.82722 5.16147 6.61382 5.70101 6.37211C6.19228 6.15205 6.50352 5.88044 6.61114 5.5779C6.6596 5.4417 6.66115 5.39808 6.62681 5.14339C6.51104 4.28443 6.06417 1.98881 5.87985 1.3059C5.73074 0.753546 5.52117 0.395138 5.2286 0.192119C5.12871 0.122819 4.97869 0.0503954 4.8952 0.0311671C4.69045 -0.0159764 3.84269 -0.00790762 3.57957 0.0436932Z" fill="white"/>
</svg>
